<?xml version="1.0" encoding="UTF-8"?>
<svg id="Layer_1" data-name="Layer 1" xmlns="http://www.w3.org/2000/svg" viewBox="0 0 196.72 179.29">
  <defs>
    <style>
      .cls-1 {
        fill: none;
        stroke: #fff;
        stroke-miterlimit: 10;
        stroke-width: 15px;
      }

      .cls-2 {
        fill: #fff;
        stroke-width: 0px;
      }
    </style>
  </defs>
  <path class="cls-1" d="M7.5,38.07v93.83c0,13.06,7.22,14.61,7.22,14.61,0,0,42.64,17.69,46.06,19.08,5.01,2.03,9.32,2.28,18.15-1.1,0,0,44.52-16.2,48.41-17.81,3.9-1.6,9.51-1.37,13.98,1.6,3.66,2.44,30.82,20.42,34.37,22.68,3.88,2.48,8.94-.96,8.94-5.27,0-2.3,4.35-112.05,4.58-122.13.23-10.08-6.64-13.98-13.29-17.41-6.64-3.44-34.5-14.11-40.21-16.65-6.07-2.71-11.43-2.75-17.53.39-6.16,3.17-38.04,19.48-41.93,21.77-3.9,2.29-10.63,1.83-18.33-2.52-8.22-4.64-28-14.52-34.31-16.96-7.73-2.98-16.15.23-16.1,9.32.06,11.85,0,16.57,0,16.57Z"/>
  <path class="cls-2" d="M137.41,77.69l-52.27,21.49c-1.36.56-2.01,2.11-1.46,3.47.25.61.72,1.11,1.32,1.4l20,9.55,9.58,20c.44.93,1.38,1.52,2.4,1.52h.08c1.05-.03,1.99-.68,2.39-1.65l21.46-52.28c.58-1.35-.04-2.92-1.39-3.5-.67-.29-1.44-.29-2.11,0Z"/>
  <path class="cls-2" d="M58.38,106.07l52.27-21.49c1.36-.56,2.01-2.11,1.46-3.47-.25-.61-.72-1.11-1.32-1.4l-20-9.55-9.58-20c-.44-.93-1.38-1.52-2.4-1.52h-.08c-1.05.03-1.99.68-2.39,1.65l-21.46,52.28c-.58,1.35.04,2.92,1.39,3.5.68.29,1.44.29,2.11,0Z"/>
</svg>