<?xml version="1.0" encoding="UTF-8"?>
<svg id="Icons" xmlns="http://www.w3.org/2000/svg" xmlns:xlink="http://www.w3.org/1999/xlink" viewBox="0 0 511.68 511.68">
  <defs>
    <style>
      .cls-1 {
        fill: #fff;
      }

      .cls-2 {
        fill: url(#New_Gradient_Swatch_1);
      }
    </style>
    <linearGradient id="New_Gradient_Swatch_1" data-name="New Gradient Swatch 1" x1="54.76" y1="255.25" x2="456.78" y2="255.25" gradientUnits="userSpaceOnUse">
      <stop offset="0" stop-color="#f15d22"/>
      <stop offset="1" stop-color="#ed2024"/>
    </linearGradient>
  </defs>
  <path class="cls-2" d="M255.77,54.24c-111.01,0-201.01,90-201.01,201.01s90,201.01,201.01,201.01,201.01-90,201.01-201.01S366.79,54.24,255.77,54.24Z"/>
  <g>
    <g>
      <path class="cls-1" d="M241.7,186.19v13.88h-19.04v61.58h-15.7v-61.58h-19.04v-13.88h53.78Z"/>
      <path class="cls-1" d="M323.63,195.59h-71.94c-2.2,0-3.98-1.78-3.98-3.98s1.78-3.98,3.98-3.98h71.94c2.2,0,3.98,1.78,3.98,3.98s-1.78,3.98-3.98,3.98Z"/>
      <path class="cls-1" d="M323.63,217.78h-71.94c-2.2,0-3.98-1.78-3.98-3.98s1.78-3.98,3.98-3.98h71.94c2.2,0,3.98,1.78,3.98,3.98s-1.78,3.98-3.98,3.98Z"/>
      <path class="cls-1" d="M323.63,239.98h-71.94c-2.2,0-3.98-1.78-3.98-3.98s1.78-3.98,3.98-3.98h71.94c2.2,0,3.98,1.78,3.98,3.98s-1.78,3.98-3.98,3.98Z"/>
      <path class="cls-1" d="M323.63,262.17h-71.94c-2.2,0-3.98-1.78-3.98-3.98s1.78-3.98,3.98-3.98h71.94c2.2,0,3.98,1.78,3.98,3.98s-1.78,3.98-3.98,3.98Z"/>
      <path class="cls-1" d="M323.63,284.37h-132.94c-2.2,0-3.98-1.78-3.98-3.98s1.78-3.98,3.98-3.98h132.94c2.2,0,3.98,1.78,3.98,3.98s-1.78,3.98-3.98,3.98Z"/>
      <path class="cls-1" d="M323.63,306.56h-132.94c-2.2,0-3.98-1.78-3.98-3.98s1.78-3.98,3.98-3.98h132.94c2.2,0,3.98,1.78,3.98,3.98s-1.78,3.98-3.98,3.98Z"/>
      <path class="cls-1" d="M323.63,326.9h-132.94c-2.2,0-3.98-1.78-3.98-3.98s1.78-3.98,3.98-3.98h132.94c2.2,0,3.98,1.78,3.98,3.98s-1.78,3.98-3.98,3.98Z"/>
    </g>
    <path class="cls-1" d="M344.47,351.44h-177.39c-4.14,0-7.5-3.36-7.5-7.5v-177.39c0-4.14,3.36-7.5,7.5-7.5h177.39c4.14,0,7.5,3.36,7.5,7.5v177.39c0,4.14-3.36,7.5-7.5,7.5ZM174.57,336.44h162.39v-162.39h-162.39v162.39Z"/>
  </g>
</svg>
