<?xml version="1.0" encoding="UTF-8"?>
<svg id="Layer_1" data-name="Layer 1" xmlns="http://www.w3.org/2000/svg" viewBox="0 0 173.62 173.87">
  <defs>
    <style>
      .cls-1 {
        stroke: #000;
        stroke-miterlimit: 10;
        stroke-width: 2.92px;
      }

      .cls-1, .cls-2 {
        fill: #231f20;
      }

      .cls-2 {
        stroke-width: 0px;
      }
    </style>
  </defs>
  <path class="cls-1" d="M115.46,66.82c5.87-.42,11.51.19,17.07,1.57,19.63,4.88,35.63,22.31,38.88,42.28,1.95,12.01.12,23.35-5.66,34.03-.87,1.61-1.06,3.18-.67,4.93.84,3.7,1.65,7.42,2.37,11.15,1.2,6.16-3.93,11.14-10.03,9.67-3.69-.89-7.34-1.95-10.98-3.03-1.98-.59-3.78-.46-5.7.38-20.86,9.17-44.55,4.44-60.05-12.15-9.95-10.65-14.57-23.42-14.14-38,.03-.87,0-1.75,0-2.69-11.35,1.55-22.08-.16-32.41-4.78-1.15-.52-2.74-.57-4-.27-4.37,1.04-8.67,2.34-13.01,3.51-6.73,1.81-11.98-3.16-10.58-10.02.87-4.28,1.92-8.53,2.63-12.83.23-1.38.05-3.11-.61-4.32-4.94-9.2-7.64-18.97-7.03-29.4C2.92,33.33,14.35,16.2,35.76,6.52c31.4-14.2,67.83,2.71,77.8,35.58,2.38,7.78,2.97,15.26,1.9,24.72ZM14.53,105.67c4.3-1.18,8.35-2.15,12.32-3.43,4.02-1.29,7.76-.97,11.61.76,10.35,4.66,21.05,5.45,32.11,2.76,24.72-6.03,40.96-31.83,35.63-56.8C99.1,15.74,62.36-.49,33.23,17c-14.4,8.64-22.12,21.77-23.38,38.55-.71,9.41,1.35,18.27,5.9,26.52,1.87,3.39,2.4,6.83,1.49,10.61-1.02,4.19-1.78,8.43-2.71,12.99ZM159.43,162.55c-.69-3.29-1.16-6.28-1.96-9.19-1.34-4.83-.74-9.17,1.64-13.7,5.4-10.25,6.28-21.13,3.16-32.29-5.76-20.61-26.6-34.76-47.35-32.26-1.18.14-1.57.6-1.91,1.62-1.76,5.26-4.25,10.16-7.49,14.67-7.29,10.16-16.84,17.26-28.73,21.19-.88.29-1.68.45-1.83,1.77-.76,6.93.04,13.65,2.34,20.22,5.84,16.7,21.79,28.62,39.32,29.5,7.49.38,14.64-.88,21.45-4.01,3.2-1.47,6.4-1.74,9.79-.71,3.69,1.12,7.44,2.06,11.57,3.19Z"/>
  <path class="cls-2" d="M74.97,56.34c0,1.7-.18,3.33-.53,4.88s-.86,3-1.51,4.35c-.66,1.35-1.46,2.59-2.41,3.72s-2.03,2.13-3.24,2.99l9.66,10.52h-5.84c-.84,0-1.6-.11-2.28-.34-.67-.23-1.29-.65-1.85-1.26l-5.58-6.16c-.89.25-1.81.43-2.75.55-.94.12-1.92.18-2.93.18-2.88,0-5.5-.49-7.88-1.46s-4.41-2.33-6.1-4.06c-1.69-1.74-3-3.79-3.93-6.17s-1.39-4.96-1.39-7.75.46-5.37,1.39-7.75,2.24-4.43,3.93-6.17c1.69-1.74,3.73-3.09,6.1-4.06s5-1.46,7.88-1.46,5.5.49,7.87,1.47,4.39,2.34,6.08,4.06,2.99,3.78,3.92,6.16,1.39,4.97,1.39,7.76ZM67.71,56.34c0-2.09-.28-3.96-.83-5.62-.55-1.66-1.35-3.07-2.38-4.22-1.04-1.16-2.29-2.04-3.78-2.66-1.48-.61-3.15-.92-5.01-.92s-3.54.31-5.03.92-2.76,1.5-3.8,2.66c-1.04,1.16-1.85,2.57-2.41,4.22-.56,1.66-.84,3.53-.84,5.62s.28,3.96.84,5.62c.56,1.66,1.36,3.06,2.41,4.21,1.04,1.15,2.31,2.03,3.8,2.64s3.17.92,5.03.92,3.53-.31,5.01-.92,2.74-1.5,3.78-2.64c1.03-1.15,1.83-2.55,2.38-4.21.56-1.66.83-3.53.83-5.62Z"/>
  <path class="cls-2" d="M140.82,137.85h-5.47c-.62,0-1.12-.15-1.51-.46s-.68-.69-.85-1.14l-2.84-7.76h-15.76l-2.84,7.76c-.14.4-.42.77-.83,1.1-.41.33-.92.5-1.51.5h-5.5l14.94-38.04h7.24l14.93,38.04ZM116.19,123.49h12.13l-4.63-12.65c-.21-.56-.44-1.22-.7-1.99-.26-.76-.51-1.59-.75-2.49-.25.89-.49,1.73-.72,2.5-.24.77-.47,1.45-.7,2.03l-4.63,12.6Z"/>
</svg>