<?xml version="1.0" encoding="UTF-8"?>
<svg id="Icons" xmlns="http://www.w3.org/2000/svg" xmlns:xlink="http://www.w3.org/1999/xlink" viewBox="0 0 511.68 511.68">
  <defs>
    <style>
      .cls-1 {
        fill: #fff;
      }

      .cls-2 {
        fill: url(#New_Gradient_Swatch_1);
      }
    </style>
    <linearGradient id="New_Gradient_Swatch_1" data-name="New Gradient Swatch 1" x1="60.36" y1="254" x2="462.38" y2="254" gradientUnits="userSpaceOnUse">
      <stop offset="0" stop-color="#f15d22"/>
      <stop offset="1" stop-color="#ed2024"/>
    </linearGradient>
  </defs>
  <path class="cls-2" d="M261.37,52.99c-111.01,0-201.01,90-201.01,201.01s90,201.01,201.01,201.01,201.01-90,201.01-201.01S372.39,52.99,261.37,52.99Z"/>
  <g>
    <path class="cls-1" d="M342.73,316.83c-.33-1.44-.16-2.64.53-3.92,5.87-10.85,7.83-22.61,5.82-34.96-3.35-20.57-19.79-38.44-39.97-43.46-5.43-1.35-10.62-1.92-15.8-1.71.84-8.87.19-16.02-2.11-23.6-4.91-16.2-16.54-29.49-31.9-36.46-15.21-6.9-32.67-6.91-47.89-.03-21.85,9.88-33.65,27.23-35.07,51.57-.59,10.04,1.83,20.19,7.2,30.18.46.85.64,2.24.45,3.39-.46,2.78-1.08,5.6-1.67,8.33-.32,1.48-.65,2.97-.95,4.46-.77,3.79.21,7.3,2.69,9.63,2.47,2.32,6,3.08,9.7,2.09,1.5-.4,3-.82,4.49-1.24,2.78-.78,5.65-1.58,8.48-2.26,1.02-.24,2.28-.17,3.06.18,10.34,4.63,20.68,6.3,31.56,5.1,0,.33,0,.67-.01,1-.45,15.1,4.43,28.24,14.53,39.04,10.54,11.29,24.72,17.25,39.34,17.25,7.47,0,15.07-1.56,22.36-4.76,1.61-.71,3.06-.81,4.7-.32,3.33.99,7.21,2.13,11.05,3.05,3.38.81,6.69-.03,9.08-2.32,2.37-2.27,3.39-5.65,2.72-9.05-.65-3.32-1.4-6.88-2.38-11.19ZM192.99,269.34c.6-3.05,1.17-5.93,1.86-8.8.98-4.08.44-7.89-1.63-11.66-4.47-8.11-6.4-16.76-5.72-25.71,1.24-16.54,8.88-29.13,22.68-37.41,13.39-8.04,29.15-9.15,43.24-3.03,14.21,6.17,24.25,18.58,27.55,34.04,5.13,24.04-10.69,49.26-34.55,55.08-10.86,2.65-21.35,1.75-31.16-2.67-2.48-1.12-4.92-1.67-7.37-1.67-1.75,0-3.51.29-5.29.86-2.71.87-5.44,1.59-8.34,2.36-.54.14-1.08.29-1.63.43.12-.61.24-1.21.36-1.81ZM332.27,321.25c.53,1.93.92,3.92,1.33,6.03.05.25.1.5.14.75-.5-.13-1-.27-1.49-.4-2.7-.72-5.24-1.4-7.76-2.16-3.7-1.12-7.24-.86-10.82.79-6.41,2.95-13.39,4.25-20.77,3.88-17.07-.86-32.35-12.33-38.02-28.53-2.23-6.38-3-12.97-2.27-19.58.02-.18.05-.25.05-.25.08-.06.38-.16.58-.22l.2-.07c12.07-3.98,21.98-11.29,29.46-21.72,3.28-4.57,5.87-9.64,7.68-15.06q.19-.57.7-.63c20.09-2.42,40.2,11.28,45.77,31.2,3.08,11.02,2.06,21.53-3.05,31.21-2.61,4.96-3.17,9.65-1.75,14.76Z"/>
    <path class="cls-1" d="M253.37,250.31h-5.84c-.84,0-1.6-.11-2.28-.34-.68-.23-1.29-.65-1.86-1.26l-5.58-6.16c-.89.25-1.81.43-2.75.55-.94.12-1.92.18-2.93.18-2.88,0-5.5-.49-7.87-1.46-2.37-.97-4.4-2.33-6.09-4.06-1.69-1.74-3-3.79-3.93-6.17-.93-2.38-1.39-4.96-1.39-7.75s.46-5.37,1.39-7.75,2.24-4.43,3.93-6.17c1.69-1.74,3.72-3.09,6.09-4.06,2.37-.97,4.99-1.46,7.87-1.46,1.93,0,3.75.22,5.45.67s3.26,1.08,4.68,1.89,2.7,1.81,3.83,2.97c1.13,1.17,2.09,2.47,2.88,3.91.79,1.44,1.39,3,1.8,4.68s.62,3.46.62,5.31c0,1.7-.18,3.33-.53,4.88-.35,1.55-.85,3-1.51,4.35-.66,1.35-1.46,2.59-2.41,3.72-.95,1.13-2.03,2.13-3.24,2.99l9.66,10.52ZM220.09,223.85c0,2.09.28,3.96.84,5.62s1.36,3.06,2.41,4.21c1.04,1.15,2.31,2.03,3.79,2.64,1.48.61,3.15.92,5.01.92s3.53-.31,5.01-.92c1.48-.61,2.74-1.5,3.78-2.64,1.04-1.15,1.83-2.55,2.39-4.21.56-1.66.84-3.53.84-5.62s-.28-3.96-.84-5.62c-.56-1.66-1.36-3.07-2.39-4.22s-2.29-2.04-3.78-2.66c-1.48-.61-3.15-.92-5.01-.92s-3.53.31-5.01.92c-1.48.61-2.75,1.5-3.79,2.66-1.04,1.16-1.85,2.57-2.41,4.22s-.84,3.53-.84,5.62Z"/>
    <path class="cls-1" d="M316.58,305.36h-5.47c-.61,0-1.11-.15-1.5-.46-.39-.31-.68-.69-.87-1.14l-2.84-7.76h-15.76l-2.84,7.76c-.14.4-.41.77-.82,1.1-.4.33-.9.5-1.5.5h-5.52l14.97-38.04h7.21l14.94,38.04ZM304.08,290.99l-4.63-12.65c-.23-.56-.46-1.23-.71-2-.25-.77-.49-1.6-.74-2.5-.23.89-.46,1.73-.71,2.51-.25.78-.48,1.46-.71,2.04l-4.6,12.6h12.1Z"/>
  </g>
</svg>
