<?xml version="1.0" encoding="UTF-8"?>
<svg id="Icons" xmlns="http://www.w3.org/2000/svg" xmlns:xlink="http://www.w3.org/1999/xlink" viewBox="0 0 511.68 511.68">
  <defs>
    <style>
      .cls-1 {
        fill: #fff;
      }

      .cls-2 {
        fill: url(#New_Gradient_Swatch_1);
      }
    </style>
    <linearGradient id="New_Gradient_Swatch_1" data-name="New Gradient Swatch 1" x1="54.83" y1="255.25" x2="456.85" y2="255.25" gradientUnits="userSpaceOnUse">
      <stop offset="0" stop-color="#f15d22"/>
      <stop offset="1" stop-color="#ed2024"/>
    </linearGradient>
  </defs>
  <path class="cls-2" d="M255.84,54.24c-111.01,0-201.01,90-201.01,201.01s90,201.01,201.01,201.01,201.01-90,201.01-201.01S366.86,54.24,255.84,54.24Z"/>
  <g>
    <path class="cls-1" d="M255.84,358.22c-56.78,0-102.97-46.19-102.97-102.97s46.19-102.97,102.97-102.97,102.97,46.19,102.97,102.97-46.19,102.97-102.97,102.97ZM255.84,162.17c-51.32,0-93.08,41.75-93.08,93.08s41.75,93.08,93.08,93.08,93.08-41.75,93.08-93.08-41.75-93.08-93.08-93.08Z"/>
    <path class="cls-1" d="M310.57,279.78c-2.27-7.09-7.86-12.7-14.93-14.99.11-3.15.17-6.33.17-9.54,0-9.44-.49-18.68-1.43-27.53h53.64v-10.04h-54.91c-1.84-12.35-4.59-23.72-8.18-33.47-7.58-20.64-18.29-32-30.18-32s-22.6,11.36-30.18,32c-2.13,5.81-3.97,12.19-5.5,19.02-9.22.44-17.05,6.29-20.35,14.45h-35.37v10.04h33.73c.58,9.95,7.48,18.22,16.73,20.86-.05,2.22-.09,4.43-.09,6.67,0,8.37.38,16.61,1.12,24.54h-50.55v10.04h51.68c1.83,13.52,4.73,25.94,8.6,36.47,7.58,20.64,18.3,32,30.18,32s22.6-11.36,30.18-32c1.86-5.05,3.48-10.55,4.89-16.38,11.14-.62,20.2-9.17,21.63-20.09h37.51v-10.04h-38.4ZM285.78,255.25c0,2.92-.06,5.78-.15,8.61-9.03,1.13-16.46,7.48-19.15,15.93h-41.56c-.74-7.71-1.15-15.92-1.15-24.54,0-2.05.03-4.06.08-6.06,10.58-1.69,18.8-10.58,19.44-21.48h41.02c.94,8.58,1.47,17.79,1.47,27.53ZM254.77,162.24c11.01,0,22.96,21.53,28.24,55.44h-41.36c-2.34-5.76-6.93-10.38-12.68-12.75,5.99-26.47,16.25-42.69,25.8-42.69ZM214.28,238.17c-3.95-1.98-6.78-5.87-7.26-10.46-.04-.46-.07-.91-.07-1.38,0-3.31,1.23-6.33,3.25-8.66,1.78-2.05,4.18-3.54,6.9-4.21,1-.24,2.03-.38,3.1-.38,2.48,0,4.81.7,6.8,1.89,1.21.73,2.29,1.63,3.21,2.69,2.01,2.33,3.25,5.35,3.25,8.66,0,.47-.03.92-.08,1.38-.54,5.28-4.2,9.63-9.09,11.21-1.29.43-2.66.65-4.09.65-2.12,0-4.13-.51-5.91-1.41ZM254.77,348.25c-11.32,0-23.65-22.8-28.66-58.43h39.48c1.1,8.41,6.73,15.42,14.35,18.48-6.07,24.84-15.94,39.96-25.17,39.96ZM301.41,289.82c-1.1,4.73-4.74,8.48-9.4,9.76-1.11.3-2.28.48-3.48.48-2.35,0-4.55-.62-6.46-1.69-3.2-1.8-5.56-4.88-6.42-8.54-.23-.97-.36-1.97-.36-3.01,0-2.58.75-4.99,2.04-7.03,1.75-2.79,4.52-4.88,7.79-5.76,1.1-.29,2.24-.46,3.41-.46,2.39,0,4.61.63,6.55,1.74,1.9,1.09,3.5,2.62,4.66,4.47,1.29,2.04,2.04,4.44,2.04,7.03,0,1.04-.14,2.04-.37,3.01Z"/>
  </g>
</svg>
