<?xml version="1.0" encoding="UTF-8"?>
<svg id="Icons" xmlns="http://www.w3.org/2000/svg" xmlns:xlink="http://www.w3.org/1999/xlink" viewBox="0 0 511.68 511.68">
  <defs>
    <style>
      .cls-1 {
        fill: #fff;
      }

      .cls-2 {
        fill: url(#New_Gradient_Swatch_1);
      }
    </style>
    <linearGradient id="New_Gradient_Swatch_1" data-name="New Gradient Swatch 1" x1="54.83" y1="255.25" x2="456.85" y2="255.25" gradientUnits="userSpaceOnUse">
      <stop offset="0" stop-color="#f15d22"/>
      <stop offset="1" stop-color="#ed2024"/>
    </linearGradient>
  </defs>
  <path class="cls-2" d="M255.84,54.24c-111.01,0-201.01,90-201.01,201.01s90,201.01,201.01,201.01,201.01-90,201.01-201.01S366.86,54.24,255.84,54.24Z"/>
  <g>
    <path class="cls-1" d="M255.84,359.64c-57.56,0-104.4-46.83-104.4-104.4s46.83-104.4,104.4-104.4,104.4,46.83,104.4,104.4-46.83,104.4-104.4,104.4ZM255.84,165.85c-49.29,0-89.4,40.1-89.4,89.4s40.1,89.4,89.4,89.4,89.4-40.1,89.4-89.4-40.1-89.4-89.4-89.4Z"/>
    <path class="cls-1" d="M255.22,261.23c-4.14,0-7.5-3.36-7.5-7.5v-45.59c0-4.14,3.36-7.5,7.5-7.5s7.5,3.36,7.5,7.5v45.59c0,4.14-3.36,7.5-7.5,7.5Z"/>
    <path class="cls-1" d="M298.1,304.59c-1.92,0-3.84-.73-5.3-2.2l-42.43-42.43c-2.93-2.93-2.93-7.68,0-10.61,2.93-2.93,7.68-2.93,10.61,0l42.43,42.43c2.93,2.93,2.93,7.68,0,10.61-1.46,1.46-3.38,2.2-5.3,2.2Z"/>
  </g>
</svg>
