<?xml version="1.0" encoding="UTF-8"?>
<svg id="Icons" xmlns="http://www.w3.org/2000/svg" xmlns:xlink="http://www.w3.org/1999/xlink" viewBox="0 0 511.68 511.68">
  <defs>
    <style>
      .cls-1 {
        fill: #fff;
      }

      .cls-2 {
        fill: url(#New_Gradient_Swatch_1);
      }
    </style>
    <linearGradient id="New_Gradient_Swatch_1" data-name="New Gradient Swatch 1" x1="49.32" y1="256.06" x2="455.08" y2="256.06" gradientUnits="userSpaceOnUse">
      <stop offset="0" stop-color="#f15d22"/>
      <stop offset="1" stop-color="#ed2024"/>
    </linearGradient>
  </defs>
  <path class="cls-2" d="M252.2,53.18c-112.05,0-202.88,90.83-202.88,202.88s90.83,202.88,202.88,202.88,202.88-90.83,202.88-202.88S364.25,53.18,252.2,53.18Z"/>
  <g>
    <path class="cls-1" d="M331.1,195.42h-150.41c-4.14,0-7.5-3.36-7.5-7.5s3.36-7.5,7.5-7.5h150.41c4.14,0,7.5,3.36,7.5,7.5s-3.36,7.5-7.5,7.5Z"/>
    <path class="cls-1" d="M331.1,242.39h-150.41c-4.14,0-7.5-3.36-7.5-7.5s3.36-7.5,7.5-7.5h150.41c4.14,0,7.5,3.36,7.5,7.5s-3.36,7.5-7.5,7.5Z"/>
    <path class="cls-1" d="M331.1,289.36h-150.41c-4.14,0-7.5-3.36-7.5-7.5s3.36-7.5,7.5-7.5h150.41c4.14,0,7.5,3.36,7.5,7.5s-3.36,7.5-7.5,7.5Z"/>
    <path class="cls-1" d="M331.1,328.17h-150.41c-4.14,0-7.5-3.36-7.5-7.5s3.36-7.5,7.5-7.5h150.41c4.14,0,7.5,3.36,7.5,7.5s-3.36,7.5-7.5,7.5Z"/>
    <circle class="cls-1" cx="209.38" cy="187.53" r="18.13"/>
    <circle class="cls-1" cx="263.72" cy="234.89" r="18.13"/>
    <circle class="cls-1" cx="308.34" cy="281.86" r="18.13"/>
    <circle class="cls-1" cx="230.68" cy="320.67" r="18.13"/>
  </g>
</svg>
