<?xml version="1.0" encoding="UTF-8"?>
<svg id="Icons" xmlns="http://www.w3.org/2000/svg" xmlns:xlink="http://www.w3.org/1999/xlink" viewBox="0 0 511.68 511.68">
  <defs>
    <style>
      .cls-1 {
        fill: #fff;
      }

      .cls-2 {
        fill: url(#New_Gradient_Swatch_1);
      }
    </style>
    <linearGradient id="New_Gradient_Swatch_1" data-name="New Gradient Swatch 1" x1="54.83" y1="255.25" x2="456.85" y2="255.25" gradientUnits="userSpaceOnUse">
      <stop offset="0" stop-color="#f15d22"/>
      <stop offset="1" stop-color="#ed2024"/>
    </linearGradient>
  </defs>
  <path class="cls-2" d="M255.84,54.24c-111.01,0-201.01,90-201.01,201.01s90,201.01,201.01,201.01,201.01-90,201.01-201.01S366.86,54.24,255.84,54.24Z"/>
  <g>
    <path class="cls-1" d="M306.44,313.55c16.63-14.87,26.98-35.67,26.59-58.33h-20.01l32.17-48.61,32.73,48.61h-20.3c.17,20.45-6.51,40.73-18.01,57.47-26.68,38.82-76.71,54.84-121.01,37.39-5.91-2.33-20.58-9.53-24.18-14.42-5.53-7.5-1.02-16.32,7.39-18.53,9.89-2.61,11.58,3.32,18.86,7.15,26.94,14.19,63.18,9.47,85.78-10.73Z"/>
    <path class="cls-1" d="M206.95,195.17c-9.08,7.45-16.83,17.52-21.73,28.31-.03.08.03.2,0,.29-4.73,9.51-6.76,20.54-6.86,31.17h20.3l-32.45,48.89-32.45-48.89h20.3c-.45-11.1,1.83-21.82,5.15-32.31.03-.09-.03-.2,0-.29.91-2.63,1.96-5.21,3.14-7.72.03-.08-.03-.21,0-.29,2.89-5.87,6.18-11.65,9.72-17.16,22.99-31.71,58.13-48.02,97.59-42.85,13.97,1.83,35.41,9.11,45.93,18.69,8.75,7.97,1.24,20.18-9.28,20.74-7.45.4-8.8-4.01-14.16-7.02-25.62-14.43-63.07-10.81-85.2,8.44Z"/>
  </g>
</svg>
