<?xml version="1.0" encoding="UTF-8"?>
<svg id="Icons" xmlns="http://www.w3.org/2000/svg" xmlns:xlink="http://www.w3.org/1999/xlink" viewBox="0 0 512 512">
  <defs>
    <style>
      .cls-1 {
        fill: #fff;
      }

      .cls-2 {
        fill: url(#New_Gradient_Swatch_1);
      }
    </style>
    <linearGradient id="New_Gradient_Swatch_1" data-name="New Gradient Swatch 1" x1="55.62" y1="255.28" x2="462.49" y2="255.28" gradientUnits="userSpaceOnUse">
      <stop offset="0" stop-color="#f15d22"/>
      <stop offset="1" stop-color="#ed2024"/>
    </linearGradient>
  </defs>
  <circle class="cls-2" cx="259.05" cy="255.28" r="203.43"/>
  <g>
    <path class="cls-1" d="M316.82,338.61h-116.58c-21.87,0-39.67-17.8-39.67-39.67v-72.18c0-21.88,17.8-39.67,39.67-39.67h116.58c21.87,0,39.67,17.8,39.67,39.67v72.18c0,21.87-17.8,39.67-39.67,39.67ZM200.24,202.09c-13.6,0-24.67,11.07-24.67,24.67v72.18c0,13.6,11.07,24.67,24.67,24.67h116.58c13.6,0,24.67-11.07,24.67-24.67v-72.18c0-13.6-11.07-24.67-24.67-24.67h-116.58Z"/>
    <rect class="cls-1" x="304.95" y="169.77" width="10.43" height="44.79" rx="5.22" ry="5.22"/>
    <rect class="cls-1" x="278.87" y="169.77" width="10.43" height="44.79" rx="5.22" ry="5.22"/>
    <rect class="cls-1" x="226.71" y="169.77" width="10.43" height="44.79" rx="5.22" ry="5.22"/>
    <rect class="cls-1" x="252.79" y="169.77" width="10.43" height="44.79" rx="5.22" ry="5.22"/>
    <rect class="cls-1" x="200.63" y="169.77" width="10.43" height="44.79" rx="5.22" ry="5.22"/>
    <rect class="cls-1" x="168.33" y="226.97" width="180.23" height="9"/>
    <path class="cls-1" d="M259.84,246.46l8.66,17.54c.23.46.66.78,1.17.85l19.36,2.81c1.27.18,1.78,1.75.86,2.65l-14.01,13.65c-.37.36-.53.87-.45,1.37l3.31,19.28c.22,1.27-1.11,2.23-2.25,1.64l-17.31-9.1c-.45-.24-.99-.24-1.44,0l-17.31,9.1c-1.14.6-2.47-.37-2.25-1.64l3.31-19.28c.09-.5-.08-1.02-.45-1.37l-14.01-13.65c-.92-.9-.41-2.46.86-2.65l19.36-2.81c.51-.07.94-.39,1.17-.85l8.66-17.54c.57-1.15,2.21-1.15,2.78,0Z"/>
  </g>
</svg>
