<?xml version="1.0" encoding="UTF-8"?>
<svg id="Layer_1" data-name="Layer 1" xmlns="http://www.w3.org/2000/svg" viewBox="0 0 195.92 168.85">
  <defs>
    <style>
      .cls-1 {
        stroke-width: 15px;
      }

      .cls-1, .cls-2 {
        fill: none;
        stroke: #231f20;
        stroke-miterlimit: 10;
      }

      .cls-2 {
        stroke-width: 9px;
      }

      .cls-3 {
        fill: #231f20;
        stroke-width: 0px;
      }
    </style>
  </defs>
  <path class="cls-1" d="M156.25,161.35H39.67c-17.77,0-32.17-14.4-32.17-32.17V57c0-17.77,14.4-32.17,32.17-32.17h116.58c17.77,0,32.17,14.4,32.17,32.17v72.18c0,17.76-14.41,32.17-32.17,32.17Z"/>
  <path class="cls-3" d="M149.6,44.79h0c-2.88,0-5.22-2.34-5.22-5.22V5.22c0-2.88,2.34-5.22,5.22-5.22h0c2.88,0,5.22,2.34,5.22,5.22v34.35c-.01,2.89-2.34,5.22-5.22,5.22Z"/>
  <path class="cls-3" d="M123.51,44.79h0c-2.88,0-5.22-2.34-5.22-5.22V5.22c0-2.88,2.34-5.22,5.22-5.22h0c2.88,0,5.22,2.34,5.22,5.22v34.35c0,2.89-2.33,5.22-5.22,5.22Z"/>
  <path class="cls-3" d="M71.35,44.79h0c-2.88,0-5.22-2.34-5.22-5.22V5.22c0-2.88,2.34-5.22,5.22-5.22h0c2.88,0,5.22,2.34,5.22,5.22v34.35c0,2.89-2.34,5.22-5.22,5.22Z"/>
  <path class="cls-3" d="M97.43,44.79h0c-2.88,0-5.22-2.34-5.22-5.22V5.22c0-2.88,2.34-5.22,5.22-5.22h0c2.88,0,5.22,2.34,5.22,5.22v34.35c0,2.89-2.34,5.22-5.22,5.22Z"/>
  <path class="cls-3" d="M45.27,44.79h0c-2.88,0-5.22-2.34-5.22-5.22V5.22c0-2.88,2.34-5.22,5.22-5.22h0c2.88,0,5.22,2.34,5.22,5.22v34.35c0,2.89-2.34,5.22-5.22,5.22Z"/>
  <line class="cls-2" x1="7.76" y1="61.7" x2="187.99" y2="61.7"/>
  <path class="cls-3" d="M99.27,76.7l8.66,17.54c.23.46.66.78,1.17.85l19.36,2.81c1.27.18,1.78,1.75.86,2.65l-14.01,13.65c-.37.36-.53.87-.45,1.37l3.31,19.28c.22,1.27-1.11,2.23-2.25,1.64l-17.31-9.1c-.45-.24-.99-.24-1.44,0l-17.31,9.1c-1.14.6-2.47-.37-2.25-1.64l3.31-19.28c.09-.5-.08-1.02-.45-1.37l-14.01-13.65c-.92-.9-.41-2.46.86-2.65l19.36-2.81c.51-.07.94-.39,1.17-.85l8.66-17.54c.54-1.15,2.19-1.15,2.76,0Z"/>
</svg>