<?xml version="1.0" encoding="UTF-8"?>
<svg id="Layer_1" data-name="Layer 1" xmlns="http://www.w3.org/2000/svg" xmlns:xlink="http://www.w3.org/1999/xlink" viewBox="0 0 304.37 267.31">
  <defs>
    <style>
      .cls-1 {
        clip-path: url(#clippath);
      }

      .cls-2 {
        stroke: #fff;
        stroke-miterlimit: 10;
        stroke-width: 6.4px;
      }

      .cls-2, .cls-3, .cls-4 {
        fill: #231f20;
      }

      .cls-4 {
        stroke-width: 0px;
      }
    </style>
    <clipPath id="clippath">
      <circle class="cls-4" cx="151.63" cy="135.36" r="41.98"/>
    </clipPath>
  </defs>
  <g>
    <path class="cls-4" d="M48.94,94.38v11.48H14.54v22.97h29.03v11.54H14.54v31.61H0v-77.6h48.94Z"/>
    <path class="cls-4" d="M74.7,160.06h31.07v11.91h-45.51v-77.59h14.44v65.68Z"/>
  </g>
  <g>
    <circle class="cls-3" cx="151.63" cy="135.36" r="41.98"/>
    <g class="cls-1">
      <g>
        <path class="cls-2" d="M163.82,205.44c-2.97,2.97-6.18,5.56-9.57,7.77,5.53,2.58,10.82,5.87,15.73,9.84,2.08-1.68,4.09-3.49,6.02-5.42"/>
        <path class="cls-2" d="M79.84,205.44c2.97,2.97,6.18,5.56,9.57,7.77,20.5-9.57,44.36-9.57,64.85,0,3.38-2.21,6.59-4.79,9.57-7.77M151.63,193.25c-16.46,16.46-43.14,16.46-59.6,0"/>
        <path class="cls-2" d="M92.03,193.25c16.46,16.46,43.14,16.46,59.6,0M139.44,181.06c-9.73,9.73-25.49,9.73-35.22,0"/>
        <path class="cls-2" d="M104.22,181.06c9.73,9.73,25.49,9.73,35.22,0M127.25,168.87c-2.99,2.99-7.84,2.99-10.84,0"/>
        <path class="cls-2" d="M116.41,168.87c2.99,2.99,7.84,2.99,10.84,0"/>
        <path class="cls-2" d="M176.01,228.47c-1.93-1.93-3.95-3.74-6.02-5.42-4.91-3.98-10.2-7.26-15.73-9.84-20.5-9.57-44.36-9.57-64.85,0-5.53,2.58-10.82,5.87-15.73,9.84-2.08,1.68-4.09,3.49-6.02,5.42M79.84,240.66c23.19-23.19,60.79-23.19,83.98,0"/>
        <path class="cls-2" d="M163.82,240.66c-23.19-23.19-60.79-23.19-83.98,0M92.03,252.85c16.46-16.46,43.14-16.46,59.6,0"/>
        <path class="cls-2" d="M151.63,252.85c-16.46-16.46-43.14-16.46-59.6,0M104.22,265.04c9.73-9.73,25.49-9.73,35.22,0"/>
      </g>
      <g>
        <path class="cls-2" d="M104.22,145.84c-2.97,2.97-6.18,5.56-9.57,7.77,5.53,2.58,10.82,5.87,15.73,9.84,2.08-1.68,4.09-3.49,6.02-5.42"/>
        <path class="cls-2" d="M20.24,145.84c2.97,2.97,6.18,5.56,9.57,7.77,20.5-9.57,44.36-9.57,64.85,0,3.38-2.21,6.59-4.79,9.57-7.77M92.03,133.65c-16.46,16.46-43.14,16.46-59.6,0"/>
        <path class="cls-2" d="M32.43,133.65c16.46,16.46,43.14,16.46,59.6,0M79.84,121.46c-9.73,9.73-25.49,9.73-35.22,0"/>
        <path class="cls-2" d="M44.62,121.46c9.73,9.73,25.49,9.73,35.22,0M67.65,109.27c-2.99,2.99-7.84,2.99-10.84,0"/>
        <path class="cls-2" d="M56.81,109.27c2.99,2.99,7.84,2.99,10.84,0"/>
        <path class="cls-2" d="M116.41,168.87c-1.93-1.93-3.95-3.74-6.02-5.42-4.91-3.98-10.2-7.26-15.73-9.84-20.5-9.57-44.36-9.57-64.85,0-5.53,2.58-10.82,5.87-15.73,9.84-2.08,1.68-4.09,3.49-6.02,5.42M20.24,181.06c23.19-23.19,60.79-23.19,83.98,0"/>
        <path class="cls-2" d="M104.22,181.06c-23.19-23.19-60.79-23.19-83.98,0M32.43,193.25c16.46-16.46,43.14-16.46,59.6,0"/>
        <path class="cls-2" d="M92.03,193.25c-16.46-16.46-43.14-16.46-59.6,0M44.62,205.44c9.73-9.73,25.49-9.73,35.22,0"/>
      </g>
      <g>
        <path class="cls-2" d="M127.25,158.03c1.93,1.93,3.95,3.74,6.02,5.42,4.91-3.98,10.2-7.26,15.73-9.84-3.38-2.21-6.59-4.79-9.57-7.77"/>
        <path class="cls-2" d="M223.42,145.84c-2.97,2.97-6.18,5.56-9.57,7.77,5.53,2.58,10.82,5.87,15.73,9.84,2.08-1.68,4.09-3.49,6.02-5.42"/>
        <path class="cls-2" d="M139.44,145.84c2.97,2.97,6.18,5.56,9.57,7.77,20.5-9.57,44.36-9.57,64.85,0,3.38-2.21,6.59-4.79,9.57-7.77M211.23,133.65c-16.46,16.46-43.14,16.46-59.6,0"/>
        <path class="cls-2" d="M151.63,133.65c16.46,16.46,43.14,16.46,59.6,0M199.04,121.46c-9.73,9.73-25.49,9.73-35.22,0"/>
        <path class="cls-2" d="M163.82,121.46c9.73,9.73,25.49,9.73,35.22,0M186.85,109.27c-2.99,2.99-7.84,2.99-10.84,0"/>
        <path class="cls-2" d="M176.01,109.27c2.99,2.99,7.84,2.99,10.84,0"/>
        <path class="cls-2" d="M235.61,168.87c-1.93-1.93-3.95-3.74-6.02-5.42-4.91-3.98-10.2-7.26-15.73-9.84-20.5-9.57-44.36-9.57-64.85,0-5.53,2.58-10.82,5.87-15.73,9.84-2.08,1.68-4.09,3.49-6.02,5.42M139.44,181.06c23.19-23.19,60.79-23.19,83.98,0"/>
        <path class="cls-2" d="M223.42,181.06c-23.19-23.19-60.79-23.19-83.98,0M151.63,193.25c16.46-16.46,43.14-16.46,59.6,0"/>
        <path class="cls-2" d="M211.23,193.25c-16.46-16.46-43.14-16.46-59.6,0M163.82,205.44c9.73-9.73,25.49-9.73,35.22,0"/>
        <path class="cls-2" d="M199.04,205.44c-9.73-9.73-25.49-9.73-35.22,0M176.01,217.63c2.99-2.99,7.84-2.99,10.84,0"/>
        <path class="cls-2" d="M186.85,217.63c-2.99-2.99-7.84-2.99-10.84,0"/>
      </g>
      <g>
        <path class="cls-2" d="M67.65,98.43c1.93,1.93,3.95,3.74,6.02,5.42,4.91-3.98,10.2-7.26,15.73-9.84-3.38-2.21-6.59-4.79-9.57-7.77"/>
        <path class="cls-2" d="M163.82,86.24c-2.97,2.97-6.18,5.56-9.57,7.77,5.53,2.58,10.82,5.87,15.73,9.84,2.08-1.68,4.09-3.49,6.02-5.42"/>
        <path class="cls-2" d="M79.84,86.24c2.97,2.97,6.18,5.56,9.57,7.77,20.5-9.57,44.36-9.57,64.85,0,3.38-2.21,6.59-4.79,9.57-7.77M151.63,74.05c-16.46,16.46-43.14,16.46-59.6,0"/>
        <path class="cls-2" d="M92.03,74.05c16.46,16.46,43.14,16.46,59.6,0M139.44,61.86c-9.73,9.73-25.49,9.73-35.22,0"/>
        <path class="cls-2" d="M104.22,61.86c9.73,9.73,25.49,9.73,35.22,0M127.25,49.67c-2.99,2.99-7.84,2.99-10.84,0"/>
        <path class="cls-2" d="M116.41,49.67c2.99,2.99,7.84,2.99,10.84,0"/>
        <path class="cls-2" d="M176.01,109.27c-1.93-1.93-3.95-3.74-6.02-5.42-4.91-3.98-10.2-7.26-15.73-9.84-20.5-9.57-44.36-9.57-64.85,0-5.53,2.58-10.82,5.87-15.73,9.84-2.08,1.68-4.09,3.49-6.02,5.42M79.84,121.46c23.19-23.19,60.79-23.19,83.98,0"/>
        <path class="cls-2" d="M163.82,121.46c-23.19-23.19-60.79-23.19-83.98,0M92.03,133.65c16.46-16.46,43.14-16.46,59.6,0"/>
        <path class="cls-2" d="M151.63,133.65c-16.46-16.46-43.14-16.46-59.6,0M104.22,145.84c9.73-9.73,25.49-9.73,35.22,0"/>
        <path class="cls-2" d="M139.44,145.84c-9.73-9.73-25.49-9.73-35.22,0M116.41,158.03c2.99-2.99,7.84-2.99,10.84,0"/>
        <path class="cls-2" d="M127.25,158.03c-2.99-2.99-7.84-2.99-10.84,0"/>
      </g>
      <g>
        <path class="cls-2" d="M186.85,98.43c1.93,1.93,3.95,3.74,6.02,5.42,4.91-3.98,10.2-7.26,15.73-9.84-3.38-2.21-6.59-4.79-9.57-7.77"/>
        <path class="cls-2" d="M199.04,86.24c2.97,2.97,6.18,5.56,9.57,7.77,20.5-9.57,44.36-9.57,64.85,0,3.38-2.21,6.59-4.79,9.57-7.77M270.83,74.05c-16.46,16.46-43.14,16.46-59.6,0"/>
        <path class="cls-2" d="M211.23,74.05c16.46,16.46,43.14,16.46,59.6,0M258.64,61.86c-9.73,9.73-25.49,9.73-35.22,0"/>
        <path class="cls-2" d="M295.21,109.27c-1.93-1.93-3.95-3.74-6.02-5.42-4.91-3.98-10.2-7.26-15.73-9.84-20.5-9.57-44.36-9.57-64.85,0-5.53,2.58-10.82,5.87-15.73,9.84-2.08,1.68-4.09,3.49-6.02,5.42M199.04,121.46c23.19-23.19,60.79-23.19,83.98,0"/>
        <path class="cls-2" d="M283.02,121.46c-23.19-23.19-60.79-23.19-83.98,0M211.23,133.65c16.46-16.46,43.14-16.46,59.6,0"/>
        <path class="cls-2" d="M270.83,133.65c-16.46-16.46-43.14-16.46-59.6,0M223.42,145.84c9.73-9.73,25.49-9.73,35.22,0"/>
        <path class="cls-2" d="M258.64,145.84c-9.73-9.73-25.49-9.73-35.22,0M235.61,158.03c2.99-2.99,7.84-2.99,10.84,0"/>
        <path class="cls-2" d="M246.45,158.03c-2.99-2.99-7.84-2.99-10.84,0"/>
      </g>
      <g>
        <path class="cls-2" d="M127.25,38.83c1.93,1.93,3.95,3.74,6.02,5.42,4.91-3.98,10.2-7.26,15.73-9.84-3.38-2.21-6.59-4.79-9.57-7.77"/>
        <path class="cls-2" d="M139.44,26.64c2.97,2.97,6.18,5.56,9.57,7.77,20.5-9.57,44.36-9.57,64.85,0,3.38-2.21,6.59-4.79,9.57-7.77M211.23,14.45c-16.46,16.46-43.14,16.46-59.6,0"/>
        <path class="cls-2" d="M151.63,14.45c16.46,16.46,43.14,16.46,59.6,0M199.04,2.26c-9.73,9.73-25.49,9.73-35.22,0"/>
        <path class="cls-2" d="M235.61,49.67c-1.93-1.93-3.95-3.74-6.02-5.42-4.91-3.98-10.2-7.26-15.73-9.84-20.5-9.57-44.36-9.57-64.85,0-5.53,2.58-10.82,5.87-15.73,9.84-2.08,1.68-4.09,3.49-6.02,5.42M139.44,61.86c23.19-23.19,60.79-23.19,83.98,0"/>
        <path class="cls-2" d="M223.42,61.86c-23.19-23.19-60.79-23.19-83.98,0M151.63,74.05c16.46-16.46,43.14-16.46,59.6,0"/>
        <path class="cls-2" d="M211.23,74.05c-16.46-16.46-43.14-16.46-59.6,0M163.82,86.24c9.73-9.73,25.49-9.73,35.22,0"/>
        <path class="cls-2" d="M199.04,86.24c-9.73-9.73-25.49-9.73-35.22,0M176.01,98.43c2.99-2.99,7.84-2.99,10.84,0"/>
        <path class="cls-2" d="M186.85,98.43c-2.99-2.99-7.84-2.99-10.84,0"/>
      </g>
    </g>
  </g>
  <path class="cls-4" d="M193.34,94.38h12.13c1.25,0,2.3.29,3.14.88.84.59,1.4,1.39,1.69,2.39l13.2,46.42c.32,1.15.62,2.39.89,3.73.27,1.34.53,2.76.78,4.27.29-1.5.6-2.92.94-4.27.34-1.34.71-2.58,1.1-3.73l15.24-46.42c.29-.82.85-1.57,1.69-2.25s1.87-1.02,3.09-1.02h4.24c1.25,0,2.29.29,3.11.88.82.59,1.4,1.39,1.72,2.39l15.13,46.42c.79,2.29,1.47,4.83,2.04,7.62.25-1.39.51-2.74.78-4.02.27-1.29.54-2.49.83-3.6l13.2-46.42c.25-.89.81-1.66,1.66-2.31.86-.64,1.9-.97,3.11-.97h11.32l-24.1,77.6h-13.04l-16.96-53.02c-.21-.68-.44-1.41-.67-2.2s-.46-1.63-.67-2.52c-.21.89-.44,1.74-.67,2.52-.23.79-.46,1.52-.67,2.2l-17.12,53.02h-13.04l-24.09-77.59Z"/>
</svg>