<?xml version="1.0" encoding="UTF-8"?>
<svg id="Icons" xmlns="http://www.w3.org/2000/svg" xmlns:xlink="http://www.w3.org/1999/xlink" viewBox="0 0 512 512">
  <defs>
    <style>
      .cls-1, .cls-2 {
        fill: none;
      }

      .cls-2 {
        stroke: #fff;
        stroke-miterlimit: 10;
        stroke-width: 6.4px;
      }

      .cls-3 {
        fill: #fff;
      }

      .cls-4 {
        fill: url(#New_Gradient_Swatch_1);
      }

      .cls-5 {
        clip-path: url(#clippath);
      }
    </style>
    <linearGradient id="New_Gradient_Swatch_1" data-name="New Gradient Swatch 1" x1="52.57" y1="255" x2="459.43" y2="255" gradientUnits="userSpaceOnUse">
      <stop offset="0" stop-color="#f15d22"/>
      <stop offset="1" stop-color="#ed2024"/>
    </linearGradient>
    <clipPath id="clippath">
      <circle class="cls-1" cx="259.04" cy="254.93" r="41.98"/>
    </clipPath>
  </defs>
  <circle class="cls-4" cx="256" cy="255" r="203.43"/>
  <g>
    <g>
      <path class="cls-3" d="M122.71,225.43v22.97h29.09v11.54h-29.09v31.61h-14.49v-77.6h48.94v11.48h-34.45Z"/>
      <path class="cls-3" d="M214.42,279.63v11.91h-45.46v-77.6h14.44v65.69h31.02Z"/>
    </g>
    <g class="cls-5">
      <g>
        <g>
          <g>
            <path class="cls-2" d="M271.23,325.01c-2.97,2.97-6.18,5.56-9.57,7.77,5.53,2.58,10.82,5.87,15.73,9.84,2.08-1.68,4.09-3.49,6.02-5.42"/>
            <path class="cls-2" d="M187.25,325.01c2.97,2.97,6.18,5.56,9.57,7.77,20.5-9.57,44.36-9.57,64.85,0,3.38-2.21,6.59-4.79,9.57-7.77M259.04,312.82c-16.46,16.46-43.14,16.46-59.6,0"/>
            <path class="cls-2" d="M199.44,312.82c16.46,16.46,43.14,16.46,59.6,0M246.85,300.62c-9.73,9.73-25.49,9.73-35.22,0"/>
            <path class="cls-2" d="M211.63,300.62c9.73,9.73,25.49,9.73,35.22,0M234.66,288.43c-2.99,2.99-7.84,2.99-10.84,0"/>
            <path class="cls-2" d="M223.82,288.43c2.99,2.99,7.84,2.99,10.84,0"/>
            <path class="cls-2" d="M283.42,348.03c-1.93-1.93-3.95-3.74-6.02-5.42-4.91-3.98-10.2-7.26-15.73-9.84-20.5-9.57-44.36-9.57-64.85,0-5.53,2.58-10.82,5.87-15.73,9.84-2.08,1.68-4.09,3.49-6.02,5.42M187.25,360.23c23.19-23.19,60.79-23.19,83.98,0"/>
            <path class="cls-2" d="M271.23,360.23c-23.19-23.19-60.79-23.19-83.98,0M199.44,372.42c16.46-16.46,43.14-16.46,59.6,0"/>
            <path class="cls-2" d="M259.04,372.42c-16.46-16.46-43.14-16.46-59.6,0M211.63,384.61c9.73-9.73,25.49-9.73,35.22,0"/>
          </g>
          <g>
            <path class="cls-2" d="M211.63,265.41c-2.97,2.97-6.18,5.56-9.57,7.77,5.53,2.58,10.82,5.87,15.73,9.84,2.08-1.68,4.09-3.49,6.02-5.42"/>
            <path class="cls-2" d="M127.65,265.41c2.97,2.97,6.18,5.56,9.57,7.77,20.5-9.57,44.36-9.57,64.85,0,3.38-2.21,6.59-4.79,9.57-7.77M199.44,253.21c-16.46,16.46-43.14,16.46-59.6,0"/>
            <path class="cls-2" d="M139.84,253.21c16.46,16.46,43.14,16.46,59.6,0M187.25,241.02c-9.73,9.73-25.49,9.73-35.22,0"/>
            <path class="cls-2" d="M152.03,241.02c9.73,9.73,25.49,9.73,35.22,0M175.06,228.83c-2.99,2.99-7.84,2.99-10.84,0"/>
            <path class="cls-2" d="M164.22,228.83c2.99,2.99,7.84,2.99,10.84,0"/>
            <path class="cls-2" d="M223.82,288.43c-1.93-1.93-3.95-3.74-6.02-5.42-4.91-3.98-10.2-7.26-15.73-9.84-20.5-9.57-44.36-9.57-64.85,0-5.53,2.58-10.82,5.87-15.73,9.84-2.08,1.68-4.09,3.49-6.02,5.42M127.65,300.62c23.19-23.19,60.79-23.19,83.98,0"/>
            <path class="cls-2" d="M211.63,300.62c-23.19-23.19-60.79-23.19-83.98,0M139.84,312.82c16.46-16.46,43.14-16.46,59.6,0"/>
            <path class="cls-2" d="M199.44,312.82c-16.46-16.46-43.14-16.46-59.6,0M152.03,325.01c9.73-9.73,25.49-9.73,35.22,0"/>
          </g>
        </g>
        <g>
          <g>
            <path class="cls-2" d="M234.66,277.6c1.93,1.93,3.95,3.74,6.02,5.42,4.91-3.98,10.2-7.26,15.73-9.84-3.38-2.21-6.59-4.79-9.57-7.77"/>
            <path class="cls-2" d="M330.83,265.41c-2.97,2.97-6.18,5.56-9.57,7.77,5.53,2.58,10.82,5.87,15.73,9.84,2.08-1.68,4.09-3.49,6.02-5.42"/>
            <path class="cls-2" d="M246.85,265.41c2.97,2.97,6.18,5.56,9.57,7.77,20.5-9.57,44.36-9.57,64.85,0,3.38-2.21,6.59-4.79,9.57-7.77M318.64,253.21c-16.46,16.46-43.14,16.46-59.6,0"/>
            <path class="cls-2" d="M259.04,253.21c16.46,16.46,43.14,16.46,59.6,0M306.45,241.02c-9.73,9.73-25.49,9.73-35.22,0"/>
            <path class="cls-2" d="M271.23,241.02c9.73,9.73,25.49,9.73,35.22,0M294.26,228.83c-2.99,2.99-7.84,2.99-10.84,0"/>
            <path class="cls-2" d="M283.42,228.83c2.99,2.99,7.84,2.99,10.84,0"/>
            <path class="cls-2" d="M343.02,288.43c-1.93-1.93-3.95-3.74-6.02-5.42-4.91-3.98-10.2-7.26-15.73-9.84-20.5-9.57-44.36-9.57-64.85,0-5.53,2.58-10.82,5.87-15.73,9.84-2.08,1.68-4.09,3.49-6.02,5.42M246.85,300.62c23.19-23.19,60.79-23.19,83.98,0"/>
            <path class="cls-2" d="M330.83,300.62c-23.19-23.19-60.79-23.19-83.98,0M259.04,312.82c16.46-16.46,43.14-16.46,59.6,0"/>
            <path class="cls-2" d="M318.64,312.82c-16.46-16.46-43.14-16.46-59.6,0M271.23,325.01c9.73-9.73,25.49-9.73,35.22,0"/>
            <path class="cls-2" d="M306.45,325.01c-9.73-9.73-25.49-9.73-35.22,0M283.42,337.2c2.99-2.99,7.84-2.99,10.84,0"/>
            <path class="cls-2" d="M294.26,337.2c-2.99-2.99-7.84-2.99-10.84,0"/>
          </g>
          <g>
            <path class="cls-2" d="M175.06,218c1.93,1.93,3.95,3.74,6.02,5.42,4.91-3.98,10.2-7.26,15.73-9.84-3.38-2.21-6.59-4.79-9.57-7.77"/>
            <path class="cls-2" d="M271.23,205.8c-2.97,2.97-6.18,5.56-9.57,7.77,5.53,2.58,10.82,5.87,15.73,9.84,2.08-1.68,4.09-3.49,6.02-5.42"/>
            <path class="cls-2" d="M187.25,205.8c2.97,2.97,6.18,5.56,9.57,7.77,20.5-9.57,44.36-9.57,64.85,0,3.38-2.21,6.59-4.79,9.57-7.77M259.04,193.61c-16.46,16.46-43.14,16.46-59.6,0"/>
            <path class="cls-2" d="M199.44,193.61c16.46,16.46,43.14,16.46,59.6,0M246.85,181.42c-9.73,9.73-25.49,9.73-35.22,0"/>
            <path class="cls-2" d="M211.63,181.42c9.73,9.73,25.49,9.73,35.22,0M234.66,169.23c-2.99,2.99-7.84,2.99-10.84,0"/>
            <path class="cls-2" d="M223.82,169.23c2.99,2.99,7.84,2.99,10.84,0"/>
            <path class="cls-2" d="M283.42,228.83c-1.93-1.93-3.95-3.74-6.02-5.42-4.91-3.98-10.2-7.26-15.73-9.84-20.5-9.57-44.36-9.57-64.85,0-5.53,2.58-10.82,5.87-15.73,9.84-2.08,1.68-4.09,3.49-6.02,5.42M187.25,241.02c23.19-23.19,60.79-23.19,83.98,0"/>
            <path class="cls-2" d="M271.23,241.02c-23.19-23.19-60.79-23.19-83.98,0M199.44,253.21c16.46-16.46,43.14-16.46,59.6,0"/>
            <path class="cls-2" d="M259.04,253.21c-16.46-16.46-43.14-16.46-59.6,0M211.63,265.41c9.73-9.73,25.49-9.73,35.22,0"/>
            <path class="cls-2" d="M246.85,265.41c-9.73-9.73-25.49-9.73-35.22,0M223.82,277.6c2.99-2.99,7.84-2.99,10.84,0"/>
            <path class="cls-2" d="M234.66,277.6c-2.99-2.99-7.84-2.99-10.84,0"/>
          </g>
        </g>
        <g>
          <g>
            <path class="cls-2" d="M294.26,218c1.93,1.93,3.95,3.74,6.02,5.42,4.91-3.98,10.2-7.26,15.73-9.84-3.38-2.21-6.59-4.79-9.57-7.77"/>
            <path class="cls-2" d="M306.45,205.8c2.97,2.97,6.18,5.56,9.57,7.77,20.5-9.57,44.36-9.57,64.85,0,3.38-2.21,6.59-4.79,9.57-7.77M378.24,193.61c-16.46,16.46-43.14,16.46-59.6,0"/>
            <path class="cls-2" d="M318.64,193.61c16.46,16.46,43.14,16.46,59.6,0M366.05,181.42c-9.73,9.73-25.49,9.73-35.22,0"/>
            <path class="cls-2" d="M402.62,228.83c-1.93-1.93-3.95-3.74-6.02-5.42-4.91-3.98-10.2-7.26-15.73-9.84-20.5-9.57-44.36-9.57-64.85,0-5.53,2.58-10.82,5.87-15.73,9.84-2.08,1.68-4.09,3.49-6.02,5.42M306.45,241.02c23.19-23.19,60.79-23.19,83.98,0"/>
            <path class="cls-2" d="M390.43,241.02c-23.19-23.19-60.79-23.19-83.98,0M318.64,253.21c16.46-16.46,43.14-16.46,59.6,0"/>
            <path class="cls-2" d="M378.24,253.21c-16.46-16.46-43.14-16.46-59.6,0M330.83,265.41c9.73-9.73,25.49-9.73,35.22,0"/>
            <path class="cls-2" d="M366.05,265.41c-9.73-9.73-25.49-9.73-35.22,0M343.02,277.6c2.99-2.99,7.84-2.99,10.84,0"/>
            <path class="cls-2" d="M353.86,277.6c-2.99-2.99-7.84-2.99-10.84,0"/>
          </g>
          <g>
            <path class="cls-2" d="M234.66,158.39c1.93,1.93,3.95,3.74,6.02,5.42,4.91-3.98,10.2-7.26,15.73-9.84-3.38-2.21-6.59-4.79-9.57-7.77"/>
            <path class="cls-2" d="M246.85,146.2c2.97,2.97,6.18,5.56,9.57,7.77,20.5-9.57,44.36-9.57,64.85,0,3.38-2.21,6.59-4.79,9.57-7.77M318.64,134.01c-16.46,16.46-43.14,16.46-59.6,0"/>
            <path class="cls-2" d="M259.04,134.01c16.46,16.46,43.14,16.46,59.6,0M306.45,121.82c-9.73,9.73-25.49,9.73-35.22,0"/>
            <path class="cls-2" d="M343.02,169.23c-1.93-1.93-3.95-3.74-6.02-5.42-4.91-3.98-10.2-7.26-15.73-9.84-20.5-9.57-44.36-9.57-64.85,0-5.53,2.58-10.82,5.87-15.73,9.84-2.08,1.68-4.09,3.49-6.02,5.42M246.85,181.42c23.19-23.19,60.79-23.19,83.98,0"/>
            <path class="cls-2" d="M330.83,181.42c-23.19-23.19-60.79-23.19-83.98,0M259.04,193.61c16.46-16.46,43.14-16.46,59.6,0"/>
            <path class="cls-2" d="M318.64,193.61c-16.46-16.46-43.14-16.46-59.6,0M271.23,205.8c9.73-9.73,25.49-9.73,35.22,0"/>
            <path class="cls-2" d="M306.45,205.8c-9.73-9.73-25.49-9.73-35.22,0M283.42,218c2.99-2.99,7.84-2.99,10.84,0"/>
            <path class="cls-2" d="M294.26,218c-2.99-2.99-7.84-2.99-10.84,0"/>
          </g>
        </g>
      </g>
    </g>
    <path class="cls-3" d="M412,213.94l-24.1,77.6h-13.04l-16.96-53.02c-.47-1.29-.89-2.86-1.29-4.72-.21.89-.43,1.74-.64,2.52-.21.79-.45,1.52-.7,2.2l-17.12,53.02h-13.09l-24.04-77.6h12.08c1.25,0,2.3.29,3.14.88.84.59,1.4,1.39,1.69,2.39l13.2,46.42c.29,1.15.56,2.39.83,3.73.27,1.34.55,2.75.83,4.21.29-1.5.6-2.92.94-4.24.34-1.32.71-2.56,1.1-3.7l15.24-46.42c.29-.82.85-1.57,1.69-2.25.84-.68,1.87-1.02,3.09-1.02h4.24c1.25,0,2.27.3,3.06.91.79.61,1.38,1.4,1.77,2.36l15.19,46.42c.75,2.22,1.43,4.78,2.04,7.67.46-2.83.98-5.38,1.56-7.67l13.2-46.42c.21-.89.76-1.66,1.64-2.31.88-.64,1.92-.97,3.14-.97h11.32Z"/>
  </g>
</svg>
