<?xml version="1.0" encoding="UTF-8"?>
<svg id="Icons" xmlns="http://www.w3.org/2000/svg" xmlns:xlink="http://www.w3.org/1999/xlink" viewBox="0 0 511.68 511.68">
  <defs>
    <style>
      .cls-1 {
        fill: #fff;
      }

      .cls-2 {
        fill: url(#New_Gradient_Swatch_1);
      }
    </style>
    <linearGradient id="New_Gradient_Swatch_1" data-name="New Gradient Swatch 1" x1="54.83" y1="255.25" x2="456.85" y2="255.25" gradientUnits="userSpaceOnUse">
      <stop offset="0" stop-color="#f15d22"/>
      <stop offset="1" stop-color="#ed2024"/>
    </linearGradient>
  </defs>
  <path class="cls-2" d="M255.84,54.24c-111.01,0-201.01,90-201.01,201.01s90,201.01,201.01,201.01,201.01-90,201.01-201.01S366.86,54.24,255.84,54.24Z"/>
  <g>
    <path class="cls-1" d="M278.05,316.67h-17.87c-2,0-3.64-.5-4.9-1.5-1.26-1-2.21-2.25-2.83-3.74l-9.28-25.34h-51.46l-9.28,25.34c-.46,1.32-1.35,2.52-2.66,3.61s-2.95,1.63-4.9,1.63h-18.04l48.88-124.22h23.54l48.79,124.22ZM237.24,269.77l-15.12-41.32c-.74-1.83-1.52-4.01-2.32-6.53-.8-2.52-1.6-5.24-2.41-8.16-.75,2.92-1.52,5.66-2.32,8.2-.8,2.55-1.58,4.77-2.32,6.66l-15.03,41.15h39.52Z"/>
    <path class="cls-1" d="M285.52,240.82c10.14-9.28,22.33-13.92,36.59-13.92,5.15,0,9.76.85,13.83,2.53,4.07,1.69,7.5,4.04,10.31,7.04,2.8,3.01,4.94,6.6,6.4,10.78,1.46,4.18,2.19,8.76,2.19,13.74v55.67h-9.62c-2.01,0-3.55-.3-4.64-.9-1.09-.6-1.95-1.82-2.58-3.65l-1.89-6.36c-2.23,2.01-4.41,3.77-6.53,5.28-2.12,1.52-4.32,2.79-6.61,3.82-2.29,1.03-4.74,1.82-7.34,2.36-2.61.54-5.48.82-8.63.82-3.72,0-7.16-.5-10.31-1.5-3.15-1-5.87-2.5-8.16-4.51-2.29-2-4.07-4.5-5.33-7.47-1.26-2.98-1.89-6.44-1.89-10.39,0-2.23.37-4.45,1.12-6.66.74-2.2,1.96-4.31,3.65-6.31,1.69-2,3.88-3.89,6.57-5.67,2.69-1.77,6-3.32,9.92-4.64,3.92-1.32,8.49-2.39,13.7-3.22,5.21-.83,11.17-1.33,17.87-1.5v-5.15c0-5.9-1.26-10.27-3.78-13.1-2.52-2.83-6.16-4.25-10.91-4.25-3.44,0-6.29.4-8.55,1.2-2.26.8-4.25,1.7-5.97,2.71-1.72,1-3.28,1.91-4.68,2.71-1.4.8-2.96,1.2-4.68,1.2-1.49,0-2.75-.39-3.78-1.16-1.03-.77-1.86-1.67-2.49-2.71l-3.78-6.79ZM334.14,279.04c-6.13.29-11.28.82-15.46,1.59-4.18.77-7.53,1.76-10.05,2.96-2.52,1.2-4.32,2.61-5.41,4.21-1.09,1.6-1.63,3.35-1.63,5.24,0,3.72,1.1,6.39,3.31,7.99,2.2,1.6,5.08,2.41,8.63,2.41,4.35,0,8.12-.79,11.3-2.36,3.18-1.57,6.28-3.96,9.32-7.17v-14.86Z"/>
  </g>
</svg>
