<?xml version="1.0" encoding="UTF-8"?>
<svg id="Icons" xmlns="http://www.w3.org/2000/svg" xmlns:xlink="http://www.w3.org/1999/xlink" viewBox="0 0 512 512">
  <defs>
    <style>
      .cls-1 {
        fill: #fff;
      }

      .cls-2 {
        fill: url(#New_Gradient_Swatch_1);
      }
    </style>
    <linearGradient id="New_Gradient_Swatch_1" data-name="New Gradient Swatch 1" x1="52.57" y1="258.25" x2="459.43" y2="258.25" gradientUnits="userSpaceOnUse">
      <stop offset="0" stop-color="#f15d22"/>
      <stop offset="1" stop-color="#ed2024"/>
    </linearGradient>
  </defs>
  <circle class="cls-2" cx="256" cy="258.25" r="203.43"/>
  <g>
    <path class="cls-1" d="M177.63,179.44c0,7.43.12,14.19-.04,20.95-.13,5.6-5.08,9.47-9.52,7.07-2.12-1.15-4.36-4.23-4.48-6.55-.51-9.48-.38-19.01-.17-28.51.1-4.56,2.95-7.06,7.58-7.12,9.07-.11,18.15-.09,27.23,0,4.77.05,7.94,3.17,7.8,7.38-.13,4.02-3.13,6.68-7.94,6.75-6.6.09-13.21.02-20.46.02Z"/>
    <path class="cls-1" d="M177.61,337.1c6.3,0,11.9,0,17.49,0,1.3,0,2.6-.08,3.89.04,4.32.39,7.16,3.36,7.03,7.25-.12,3.68-2.98,6.72-7.05,6.79-9.5.17-19.01.17-28.51,0-4.28-.08-6.93-2.7-7.03-7.21-.23-9.5-.19-19.01-.01-28.51.08-4.2,3.47-7.27,7.18-7.16,3.69.11,6.87,3.25,6.98,7.45.18,6.89.05,13.79.05,21.34Z"/>
    <path class="cls-1" d="M334.39,179.42c-5.58,0-10.73,0-15.88,0-2.02,0-4.05.11-6.04-.1-4.05-.42-6.65-3.41-6.51-7.24.12-3.47,2.93-6.67,6.65-6.74,9.79-.18,19.59-.25,29.38.02,4.2.12,6.52,3.11,6.59,7.2.16,9.5.21,19.01-.04,28.51-.11,4.35-3.43,7.18-7.23,7.03-3.8-.15-6.8-3.22-6.88-7.47-.13-6.88-.04-13.77-.04-21.22Z"/>
    <path class="cls-1" d="M334.38,337.08c0-7.25-.04-13.72.01-20.19.04-5.04,3.02-8.54,7.18-8.57,4-.03,6.99,3.21,7.07,8.19.15,8.78.18,17.57.04,26.36-.09,5.8-2.84,8.35-8.64,8.38-8.64.05-17.28.05-25.93-.02-4.92-.04-8.11-2.89-8.14-7.04-.02-4.18,3.04-7,8.08-7.09,6.59-.12,13.19-.03,20.33-.03Z"/>
    <path class="cls-1" d="M295.39,256.12l-60.01-34.65c-2.44-1.41-5.49.35-5.49,3.17v69.29c0,2.82,3.05,4.58,5.49,3.17l60.01-34.65c2.44-1.41,2.44-4.93,0-6.34Z"/>
  </g>
</svg>
