<?xml version="1.0" encoding="UTF-8"?>
<svg id="Icons" xmlns="http://www.w3.org/2000/svg" xmlns:xlink="http://www.w3.org/1999/xlink" viewBox="0 0 512 512">
  <defs>
    <style>
      .cls-1 {
        fill: #fff;
      }

      .cls-2 {
        fill: url(#New_Gradient_Swatch_1);
      }
    </style>
    <linearGradient id="New_Gradient_Swatch_1" data-name="New Gradient Swatch 1" x1="52.57" y1="255.28" x2="459.43" y2="255.28" gradientUnits="userSpaceOnUse">
      <stop offset="0" stop-color="#f15d22"/>
      <stop offset="1" stop-color="#ed2024"/>
    </linearGradient>
  </defs>
  <circle class="cls-2" cx="256" cy="255.28" r="203.43"/>
  <g>
    <path class="cls-1" d="M336.15,340.32c-2.39,0-4.75-.67-6.86-2.02-3.6-2.3-30.82-20.32-34.49-22.76-2.3-1.53-5.24-1.62-6.96-.91-3.91,1.61-43.83,16.15-48.65,17.9-9.81,3.74-16.21,4.01-23.59,1.02-3.26-1.32-40.97-16.97-45.68-18.92-4.93-1.52-12.27-7.49-12.27-21.71v-93.95s.07-4.81,0-16.41c-.04-6.24,2.54-11.48,7.27-14.75,5.2-3.6,12.31-4.2,19.02-1.61,6.61,2.55,26.69,12.56,35.3,17.42,5.88,3.32,9.84,3.18,10.84,2.59,3.16-1.86,21.37-11.23,38.78-20.16l3.53-1.81c8.01-4.12,15.64-4.3,24.01-.57,1.97.88,7.25,2.99,12.85,5.22,10.89,4.35,23.23,9.28,27.75,11.62,6.18,3.2,17.68,9.15,17.34,24.25-.13,5.83-1.58,43.45-2.86,76.63-.87,22.59-1.69,43.92-1.72,45.38,0,4.87-2.77,9.44-7.22,11.88-2.04,1.12-4.23,1.67-6.4,1.67ZM290.23,299.21c4.51,0,9.09,1.31,12.89,3.85,3.42,2.28,24.06,15.94,31.73,20.96.19-5.32.7-18.7,1.65-43.21,1.21-31.49,2.73-70.68,2.86-76.39.11-4.95-2.09-6.89-9.24-10.58-3.88-2.01-16.91-7.21-26.43-11.01-6.23-2.49-11.16-4.46-13.39-5.45-4.16-1.85-7.15-1.8-11.05.21l-3.54,1.82c-9.52,4.88-34.81,17.86-38.02,19.75-6.68,3.93-16.09,3.04-25.82-2.45-7.86-4.44-27.45-14.22-33.32-16.49-2.28-.88-4.24-.64-5.1-.04-.2.14-.81.56-.8,2.31.07,11.23,0,16.07,0,16.68v93.77c0,4.85,1.26,6.88,1.9,7.4h.06s.63.28.63.28c.43.18,42.65,17.69,46,19.05,2.91,1.18,5.21,1.69,12.66-1.15l.11-.04c17.84-6.49,45.37-16.56,48.12-17.7,2.53-1.04,5.3-1.55,8.1-1.55Z"/>
    <path class="cls-1" d="M295.06,238.7l-52.27,21.49c-1.36.56-2.01,2.11-1.46,3.47.25.61.72,1.11,1.32,1.4l20,9.55,9.58,20c.44.93,1.38,1.52,2.4,1.52h.08c1.05-.03,1.99-.68,2.39-1.65l21.46-52.28c.58-1.35-.04-2.92-1.39-3.5-.67-.29-1.44-.29-2.11,0Z"/>
    <path class="cls-1" d="M216.03,267.09l52.27-21.49c1.36-.56,2.01-2.11,1.46-3.47-.25-.61-.72-1.11-1.32-1.4l-20-9.55-9.58-20c-.44-.93-1.38-1.52-2.4-1.52h-.08c-1.05.03-1.99.68-2.39,1.65l-21.46,52.28c-.58,1.35.04,2.92,1.39,3.5.67.29,1.44.29,2.11,0Z"/>
  </g>
</svg>
