<?xml version="1.0" encoding="UTF-8"?>
<svg id="Layer_1" data-name="Layer 1" xmlns="http://www.w3.org/2000/svg" viewBox="0 0 181.47 169.48">
  <defs>
    <style>
      .cls-1 {
        fill: #231f20;
        stroke-width: 0px;
      }
    </style>
  </defs>
  <path class="cls-1" d="M171.67,50.37h-20.69c-5.41,0-9.8-4.39-9.8-9.8V9.8c0-5.41,4.39-9.8,9.8-9.8h20.69c5.41,0,9.8,4.39,9.8,9.8v30.77c0,5.42-4.39,9.8-9.8,9.8Z"/>
  <g>
    <path class="cls-1" d="M121.04,50.37h-16.03c-5.41,0-9.8-4.39-9.8-9.8V9.8c0-5.41,4.39-9.8,9.8-9.8h16.03c5.41,0,9.8,4.39,9.8,9.8v30.77c0,5.42-4.39,9.8-9.8,9.8Z"/>
    <path class="cls-1" d="M121.04,169.48h-16.03c-5.41,0-9.8-4.39-9.8-9.8v-30.77c0-5.41,4.39-9.8,9.8-9.8h16.03c5.41,0,9.8,4.39,9.8,9.8v30.77c0,5.41-4.39,9.8-9.8,9.8Z"/>
    <path class="cls-1" d="M171.67,169.48h-20.69c-5.41,0-9.8-4.39-9.8-9.8v-30.77c0-5.41,4.39-9.8,9.8-9.8h20.69c5.41,0,9.8,4.39,9.8,9.8v30.77c0,5.41-4.39,9.8-9.8,9.8Z"/>
    <path class="cls-1" d="M171.67,109.93h-66.66c-5.41,0-9.8-4.39-9.8-9.8v-30.77c0-5.41,4.39-9.8,9.8-9.8h66.66c5.41,0,9.8,4.39,9.8,9.8v30.77c0,5.41-4.39,9.8-9.8,9.8Z"/>
    <path class="cls-1" d="M76.46,169.48H9.8c-5.41,0-9.8-4.39-9.8-9.8v-30.77c0-5.41,4.39-9.8,9.8-9.8h66.66c5.41,0,9.8,4.39,9.8,9.8v30.77c0,5.41-4.39,9.8-9.8,9.8Z"/>
    <path class="cls-1" d="M76.46,50.37H9.8c-5.41,0-9.8-4.39-9.8-9.8V9.8C0,4.39,4.39,0,9.8,0h66.66c5.41,0,9.8,4.39,9.8,9.8v30.77c0,5.42-4.39,9.8-9.8,9.8Z"/>
    <path class="cls-1" d="M17.4,109.93h-7.6c-5.41,0-9.8-4.39-9.8-9.8v-30.77c0-5.41,4.39-9.8,9.8-9.8h7.6c5.41,0,9.8,4.39,9.8,9.8v30.77c0,5.41-4.38,9.8-9.8,9.8Z"/>
    <path class="cls-1" d="M76.46,109.93h-29.12c-5.41,0-9.8-4.39-9.8-9.8v-30.77c0-5.41,4.39-9.8,9.8-9.8h29.12c5.41,0,9.8,4.39,9.8,9.8v30.77c0,5.41-4.39,9.8-9.8,9.8Z"/>
  </g>
</svg>