<?xml version="1.0" encoding="UTF-8"?>
<svg id="Icons" xmlns="http://www.w3.org/2000/svg" xmlns:xlink="http://www.w3.org/1999/xlink" viewBox="0 0 512 512">
  <defs>
    <style>
      .cls-1 {
        fill: #fff;
      }

      .cls-2 {
        fill: url(#New_Gradient_Swatch_1);
      }
    </style>
    <linearGradient id="New_Gradient_Swatch_1" data-name="New Gradient Swatch 1" x1="59.61" y1="256.55" x2="464.8" y2="256.55" gradientUnits="userSpaceOnUse">
      <stop offset="0" stop-color="#f15d22"/>
      <stop offset="1" stop-color="#ed2024"/>
    </linearGradient>
  </defs>
  <path class="cls-2" d="M262.21,53.96c-111.89,0-202.59,90.7-202.59,202.59s90.7,202.59,202.59,202.59,202.59-90.7,202.59-202.59S374.1,53.96,262.21,53.96Z"/>
  <g>
    <rect class="cls-1" x="312.65" y="171.82" width="40.28" height="50.37" rx="9.8" ry="9.8"/>
    <g>
      <rect class="cls-1" x="266.69" y="171.82" width="35.62" height="50.37" rx="9.8" ry="9.8"/>
      <rect class="cls-1" x="266.69" y="290.92" width="35.62" height="50.37" rx="9.8" ry="9.8"/>
      <rect class="cls-1" x="312.65" y="290.92" width="40.28" height="50.37" rx="9.8" ry="9.8"/>
      <rect class="cls-1" x="266.69" y="231.37" width="86.25" height="50.37" rx="9.8" ry="9.8"/>
      <rect class="cls-1" x="171.48" y="290.92" width="86.25" height="50.37" rx="9.8" ry="9.8"/>
      <rect class="cls-1" x="171.48" y="171.82" width="86.25" height="50.37" rx="9.8" ry="9.8"/>
      <rect class="cls-1" x="171.48" y="231.37" width="27.19" height="50.37" rx="9.8" ry="9.8"/>
      <rect class="cls-1" x="209.02" y="231.37" width="48.71" height="50.37" rx="9.8" ry="9.8"/>
    </g>
  </g>
</svg>
