<?xml version="1.0" encoding="UTF-8"?>
<svg id="Icons" xmlns="http://www.w3.org/2000/svg" xmlns:xlink="http://www.w3.org/1999/xlink" viewBox="0 0 512 512">
  <defs>
    <style>
      .cls-1 {
        fill: #fff;
      }

      .cls-2 {
        fill: url(#New_Gradient_Swatch_1);
      }
    </style>
    <linearGradient id="New_Gradient_Swatch_1" data-name="New Gradient Swatch 1" x1="51.24" y1="259.78" x2="461.07" y2="259.78" gradientUnits="userSpaceOnUse">
      <stop offset="0" stop-color="#f15d22"/>
      <stop offset="1" stop-color="#ed2024"/>
    </linearGradient>
  </defs>
  <path class="cls-2" d="M256.16,54.87c-113.17,0-204.91,91.74-204.91,204.91s91.74,204.91,204.91,204.91,204.91-91.74,204.91-204.91S369.33,54.87,256.16,54.87Z"/>
  <path class="cls-1" d="M156.35,303.81s33.21,1.52,37.37,35.99l20.69-58.88-58.06,22.89Z"/>
  <path class="cls-1" d="M220.51,210.8l-16.44,41.8,84.21,33.12,16.44-41.8-84.21-33.12ZM246.24,243.49c-1.06,3.7-3.7,6.92-7.5,8.57-6.76,2.94-14.62-.15-17.56-6.91-1.66-3.8-1.4-7.96.35-11.39,1.06-3.7,3.7-6.92,7.5-8.57,6.76-2.94,14.62.15,17.56,6.91,1.66,3.8,1.4,7.96-.35,11.39ZM288.08,259.95c-1.06,3.7-3.7,6.92-7.5,8.57-6.76,2.94-14.62-.15-17.56-6.91-1.66-3.8-1.4-7.96.35-11.39,1.06-3.7,3.7-6.92,7.5-8.57,6.76-2.94,14.62.15,17.56,6.91,1.66,3.8,1.4,7.96-.35,11.39Z"/>
  <path class="cls-1" d="M271.76,178.25l-16.44,41.8,84.21,33.12,16.44-41.8-84.21-33.12ZM297.49,210.94c-1.06,3.7-3.7,6.92-7.5,8.57-6.76,2.94-14.62-.15-17.56-6.91-1.66-3.8-1.4-7.96.35-11.39,1.06-3.7,3.7-6.92,7.5-8.57,6.76-2.94,14.62.15,17.56,6.91,1.66,3.8,1.4,7.96-.35,11.39ZM339.33,227.4c-1.06,3.7-3.7,6.92-7.5,8.57-6.76,2.94-14.62-.15-17.56-6.91-1.66-3.8-1.4-7.96.35-11.39,1.06-3.7,3.7-6.92,7.5-8.57,6.76-2.94,14.62.15,17.56,6.91,1.66,3.8,1.4,7.96-.35,11.39Z"/>
  <path class="cls-1" d="M228.73,267.67l-16.15,41.92,84.44,32.53,16.15-41.92-84.44-32.53ZM253.9,302.99c-1.03,3.71-3.65,6.94-7.44,8.62-6.74,2.99-14.62-.05-17.61-6.78-1.68-3.79-1.46-7.95.27-11.39,1.03-3.71,3.65-6.94,7.44-8.62,6.74-2.99,14.62.05,17.61,6.78,1.68,3.79,1.46,7.95-.27,11.39ZM295.86,319.15c-1.03,3.71-3.65,6.94-7.44,8.62-6.74,2.99-14.62-.05-17.61-6.78-1.68-3.79-1.46-7.95.27-11.39,1.03-3.71,3.65-6.94,7.44-8.62,6.74-2.99,14.62.05,17.61,6.78,1.68,3.79,1.46,7.95-.27,11.39Z"/>
</svg>
