<?xml version="1.0" encoding="UTF-8"?>
<svg id="Icons" xmlns="http://www.w3.org/2000/svg" xmlns:xlink="http://www.w3.org/1999/xlink" viewBox="0 0 511.68 511.68">
  <defs>
    <style>
      .cls-1 {
        fill: #fff;
      }

      .cls-2 {
        fill: url(#New_Gradient_Swatch_1);
      }
    </style>
    <linearGradient id="New_Gradient_Swatch_1" data-name="New Gradient Swatch 1" x1="58.74" y1="254.76" x2="460.76" y2="254.76" gradientUnits="userSpaceOnUse">
      <stop offset="0" stop-color="#f15d22"/>
      <stop offset="1" stop-color="#ed2024"/>
    </linearGradient>
  </defs>
  <path class="cls-2" d="M259.75,53.75c-111.01,0-201.01,90-201.01,201.01s90,201.01,201.01,201.01,201.01-90,201.01-201.01S370.76,53.75,259.75,53.75Z"/>
  <g>
    <g>
      <path class="cls-1" d="M181.37,175.96c0,7.43.12,14.19-.04,20.95-.13,5.6-5.08,9.47-9.52,7.07-2.12-1.15-4.36-4.23-4.48-6.55-.51-9.48-.38-19.01-.17-28.51.1-4.56,2.95-7.06,7.58-7.12,9.07-.11,18.15-.09,27.23,0,4.77.05,7.94,3.17,7.8,7.38-.13,4.02-3.13,6.68-7.94,6.75-6.6.09-13.21.02-20.46.02Z"/>
      <path class="cls-1" d="M181.36,333.61c6.3,0,11.9,0,17.49,0,1.3,0,2.6-.08,3.89.04,4.32.39,7.16,3.36,7.03,7.25-.12,3.68-2.98,6.72-7.05,6.79-9.5.17-19.01.17-28.51,0-4.28-.08-6.93-2.7-7.03-7.21-.23-9.5-.19-19.01-.01-28.51.08-4.2,3.47-7.27,7.18-7.16,3.69.11,6.87,3.25,6.98,7.45.18,6.89.05,13.79.05,21.34Z"/>
      <path class="cls-1" d="M338.14,175.94c-5.58,0-10.73,0-15.88,0-2.02,0-4.05.11-6.04-.1-4.05-.42-6.65-3.41-6.51-7.24.12-3.47,2.93-6.67,6.65-6.74,9.79-.18,19.59-.25,29.38.02,4.2.12,6.52,3.11,6.59,7.2.16,9.5.21,19.01-.04,28.51-.11,4.35-3.43,7.18-7.23,7.03-3.8-.15-6.8-3.22-6.88-7.47-.13-6.88-.04-13.77-.04-21.22Z"/>
      <path class="cls-1" d="M338.13,333.59c0-7.25-.04-13.72.01-20.19.04-5.04,3.02-8.54,7.18-8.57,4-.03,6.99,3.21,7.07,8.19.15,8.78.18,17.57.04,26.36-.09,5.8-2.84,8.35-8.64,8.38-8.64.05-17.28.05-25.93-.02-4.92-.04-8.11-2.89-8.14-7.04-.02-4.18,3.04-7,8.08-7.09,6.59-.12,13.19-.03,20.33-.03Z"/>
    </g>
    <path class="cls-1" d="M259.75,250.16c-1.92,0-3.84-.73-5.3-2.2l-27.97-27.97c-1.41-1.41-2.2-3.31-2.2-5.3s.79-3.9,2.2-5.3l28.11-28.11c2.93-2.93,7.68-2.93,10.61,0l27.97,27.97c2.93,2.93,2.93,7.68,0,10.61l-28.11,28.11c-1.46,1.46-3.38,2.2-5.3,2.2ZM242.38,214.69l17.37,17.37,17.5-17.5-17.37-17.37-17.5,17.5Z"/>
    <path class="cls-1" d="M301.81,292.22c-1.92,0-3.84-.73-5.3-2.2l-27.97-27.97c-2.93-2.93-2.93-7.68,0-10.61l28.11-28.11c2.93-2.93,7.68-2.93,10.61,0l27.97,27.97c1.41,1.41,2.2,3.31,2.2,5.3s-.79,3.9-2.2,5.3l-28.11,28.11c-1.46,1.46-3.38,2.2-5.3,2.2ZM284.44,256.75l17.37,17.37,17.5-17.5-17.37-17.37-17.5,17.5Z"/>
    <path class="cls-1" d="M217.55,291.76c-1.92,0-3.84-.73-5.3-2.2l-27.97-27.97c-2.93-2.93-2.93-7.68,0-10.61l28.11-28.11c2.93-2.93,7.68-2.93,10.61,0l27.97,27.97c1.41,1.41,2.2,3.31,2.2,5.3s-.79,3.9-2.2,5.3l-28.11,28.11c-1.46,1.46-3.38,2.2-5.3,2.2ZM200.19,256.29l17.37,17.37,17.5-17.5-17.37-17.37-17.5,17.5Z"/>
    <path class="cls-1" d="M259.61,333.82c-1.99,0-3.9-.79-5.3-2.2l-27.97-27.97c-2.93-2.93-2.93-7.68,0-10.61l28.11-28.11c1.41-1.41,3.31-2.2,5.3-2.2s3.9.79,5.3,2.2l27.97,27.97c2.93,2.93,2.93,7.68,0,10.61l-28.11,28.11c-1.41,1.41-3.31,2.2-5.3,2.2ZM242.25,298.35l17.37,17.37,17.5-17.5-17.37-17.37-17.5,17.5Z"/>
  </g>
</svg>
