<?xml version="1.0" encoding="UTF-8"?>
<svg id="Layer_1" data-name="Layer 1" xmlns="http://www.w3.org/2000/svg" viewBox="0 0 185.55 186.13">
  <defs>
    <style>
      .cls-1 {
        fill: none;
        stroke: #231f20;
        stroke-linecap: round;
        stroke-linejoin: round;
        stroke-width: 15px;
      }

      .cls-2 {
        fill: #231f20;
        stroke-width: 0px;
      }
    </style>
  </defs>
  <g>
    <path class="cls-2" d="M14.4,14.26c0,7.43.12,14.19-.04,20.95-.13,5.6-5.08,9.47-9.52,7.07-2.12-1.15-4.36-4.23-4.48-6.55C-.15,26.25-.02,16.72.19,7.22.29,2.66,3.14.16,7.77.1,16.84-.01,25.92,0,35,.09c4.77.05,7.94,3.17,7.8,7.38-.13,4.02-3.13,6.68-7.94,6.75-6.6.11-13.2.04-20.46.04Z"/>
    <path class="cls-2" d="M14.39,171.92h17.49c1.3,0,2.6-.08,3.89.04,4.32.39,7.16,3.36,7.03,7.25-.12,3.68-2.98,6.72-7.05,6.79-9.5.17-19.01.17-28.51,0-4.28-.08-6.93-2.7-7.03-7.21-.23-9.5-.19-19.01,0-28.51.08-4.2,3.47-7.27,7.18-7.16,3.69.11,6.87,3.25,6.98,7.45.16,6.9.03,13.8.03,21.35Z"/>
    <path class="cls-2" d="M171.17,14.24c-5.58,0-10.73,0-15.88,0-2.02,0-4.05.11-6.04-.1-4.05-.42-6.65-3.41-6.51-7.24.12-3.47,2.93-6.67,6.65-6.74,9.79-.18,19.59-.25,29.38.02,4.2.12,6.52,3.11,6.59,7.2.16,9.5.21,19.01-.04,28.51-.11,4.35-3.43,7.18-7.23,7.03-3.8-.15-6.8-3.22-6.88-7.47-.14-6.87-.04-13.76-.04-21.21Z"/>
    <path class="cls-2" d="M171.16,171.9c0-7.25-.04-13.72.01-20.19.04-5.04,3.02-8.54,7.18-8.57,4-.03,6.99,3.21,7.07,8.19.15,8.78.18,17.57.04,26.36-.09,5.8-2.84,8.35-8.64,8.38-8.64.05-17.28.05-25.93-.02-4.92-.04-8.11-2.89-8.14-7.04-.02-4.18,3.04-7,8.08-7.09,6.59-.11,13.19-.02,20.33-.02Z"/>
  </g>
  <rect class="cls-1" x="72.96" y="33.14" width="39.75" height="39.56" transform="translate(-10.23 81.14) rotate(-45)"/>
  <rect class="cls-1" x="115.02" y="75.21" width="39.75" height="39.56" transform="translate(-27.65 123.21) rotate(-45)"/>
  <rect class="cls-1" x="30.77" y="74.74" width="39.75" height="39.56" transform="translate(-52 63.5) rotate(-45)"/>
  <rect class="cls-1" x="72.83" y="116.8" width="39.75" height="39.56" transform="translate(-69.43 105.56) rotate(-45)"/>
</svg>