<?xml version="1.0" encoding="UTF-8"?>
<svg id="Icons" xmlns="http://www.w3.org/2000/svg" xmlns:xlink="http://www.w3.org/1999/xlink" viewBox="0 0 511.68 511.68">
  <defs>
    <style>
      .cls-1 {
        fill: #fff;
      }

      .cls-2 {
        fill: url(#New_Gradient_Swatch_1);
      }
    </style>
    <linearGradient id="New_Gradient_Swatch_1" data-name="New Gradient Swatch 1" x1="50.24" y1="257.76" x2="457.78" y2="257.76" gradientUnits="userSpaceOnUse">
      <stop offset="0" stop-color="#f15d22"/>
      <stop offset="1" stop-color="#ed2024"/>
    </linearGradient>
  </defs>
  <path class="cls-2" d="M254.01,53.98c-112.54,0-203.77,91.23-203.77,203.77s91.23,203.77,203.77,203.77,203.77-91.23,203.77-203.77S366.55,53.98,254.01,53.98Z"/>
  <g>
    <path class="cls-1" d="M210.44,346.76c-.2,0-.39-.01-.59-.04-2.69-.32-4.61-2.76-4.28-5.45l20.42-170.04c.32-2.69,2.77-4.61,5.45-4.28,2.69.32,4.61,2.76,4.29,5.45l-20.42,170.04c-.3,2.49-2.42,4.32-4.86,4.32Z"/>
    <path class="cls-1" d="M291.9,346.76c-2.47,0-4.59-1.86-4.87-4.37l-18.63-170.04c-.29-2.69,1.65-5.11,4.34-5.41,2.69-.3,5.11,1.65,5.41,4.34l18.63,170.04c.29,2.69-1.65,5.11-4.34,5.41-.18.02-.36.03-.54.03Z"/>
    <path class="cls-1" d="M291.91,346.76c-1.36,0-2.71-.56-3.68-1.66l-71.85-81.51c-1.79-2.03-1.6-5.13.44-6.92,2.03-1.79,5.13-1.59,6.92.44l71.85,81.51c1.79,2.03,1.6,5.13-.44,6.92-.93.82-2.09,1.22-3.24,1.22Z"/>
    <path class="cls-1" d="M210.43,346.76c-1.18,0-2.37-.43-3.31-1.29-2-1.83-2.13-4.93-.3-6.93l72.96-79.57c1.83-2,4.93-2.13,6.93-.3,2,1.83,2.13,4.93.3,6.93l-72.96,79.57c-.97,1.05-2.29,1.59-3.62,1.59Z"/>
    <path class="cls-1" d="M220.06,265.25c-1.2,0-2.4-.44-3.34-1.32-1.98-1.85-2.09-4.95-.24-6.93l55.98-60.02c1.85-1.98,4.95-2.09,6.93-.24,1.98,1.85,2.09,4.95.24,6.93l-55.98,60.02c-.97,1.04-2.27,1.56-3.59,1.56Z"/>
    <path class="cls-1" d="M283.47,266.62c-1.3,0-2.59-.51-3.56-1.52l-57.79-60.77c-1.87-1.96-1.79-5.07.17-6.93,1.96-1.87,5.07-1.79,6.93.17l57.79,60.77c1.87,1.96,1.79,5.07-.17,6.93-.95.9-2.17,1.35-3.38,1.35Z"/>
    <path class="cls-1" d="M273.28,176.72h-42.43c-2.71,0-4.9-2.2-4.9-4.9s2.2-4.9,4.9-4.9h42.43c2.71,0,4.9,2.2,4.9,4.9s-2.2,4.9-4.9,4.9Z"/>
    <path class="cls-1" d="M191.07,205.85c-1.51,0-3-.7-3.96-2.01-1.6-2.19-1.12-5.25,1.06-6.85l39.79-29.13c2.18-1.6,5.25-1.13,6.85,1.06,1.6,2.19,1.12,5.25-1.06,6.85l-39.79,29.13c-.87.64-1.89.95-2.89.95Z"/>
    <path class="cls-1" d="M316.95,205.85h-125.89c-2.71,0-4.9-2.2-4.9-4.9s2.2-4.9,4.9-4.9h125.89c2.71,0,4.9,2.2,4.9,4.9s-2.2,4.9-4.9,4.9Z"/>
    <path class="cls-1" d="M316.95,205.85c-.94,0-1.88-.27-2.72-.83l-43.68-29.13c-2.25-1.5-2.86-4.55-1.36-6.8,1.5-2.25,4.55-2.86,6.8-1.36l43.68,29.13c2.25,1.5,2.86,4.55,1.36,6.8-.95,1.42-2.5,2.18-4.08,2.18Z"/>
  </g>
</svg>
