<?xml version="1.0" encoding="UTF-8"?>
<svg id="Icons" xmlns="http://www.w3.org/2000/svg" xmlns:xlink="http://www.w3.org/1999/xlink" viewBox="0 0 511.68 511.68">
  <defs>
    <style>
      .cls-1 {
        fill-rule: evenodd;
      }

      .cls-1, .cls-2 {
        fill: #fff;
      }

      .cls-3 {
        fill: url(#New_Gradient_Swatch_1);
      }
    </style>
    <linearGradient id="New_Gradient_Swatch_1" data-name="New Gradient Swatch 1" x1="60.36" y1="254" x2="462.38" y2="254" gradientUnits="userSpaceOnUse">
      <stop offset="0" stop-color="#f15d22"/>
      <stop offset="1" stop-color="#ed2024"/>
    </linearGradient>
  </defs>
  <path class="cls-3" d="M261.37,52.99c-111.01,0-201.01,90-201.01,201.01s90,201.01,201.01,201.01,201.01-90,201.01-201.01S372.39,52.99,261.37,52.99Z"/>
  <g>
    <path class="cls-2" d="M347.31,191.5c0-12.94-10.49-23.44-23.44-23.44h-31.25c-4.31,0-7.81,3.5-7.81,7.81s3.5,7.81,7.81,7.81h31.25c4.31,0,7.81,3.5,7.81,7.81v31.25c0,4.31,3.5,7.81,7.81,7.81s7.81-3.5,7.81-7.81v-31.25Z"/>
    <path class="cls-2" d="M347.31,285.24c0-4.31-3.5-7.81-7.81-7.81s-7.81,3.5-7.81,7.81v31.25c0,4.31-3.5,7.81-7.81,7.81h-31.25c-4.31,0-7.81,3.5-7.81,7.81s3.5,7.81,7.81,7.81h31.25c12.94,0,23.44-10.49,23.44-23.44v-31.25Z"/>
    <path class="cls-2" d="M198.88,324.3c-4.31,0-7.81-3.5-7.81-7.81v-31.25c0-4.31-3.5-7.81-7.81-7.81s-7.81,3.5-7.81,7.81v31.25c0,12.94,10.49,23.44,23.44,23.44h31.25c4.31,0,7.81-3.5,7.81-7.81s-3.5-7.81-7.81-7.81h-31.25Z"/>
    <path class="cls-2" d="M175.44,222.75c0,4.31,3.5,7.81,7.81,7.81s7.81-3.5,7.81-7.81v-31.25c0-4.31,3.5-7.81,7.81-7.81h31.25c4.31,0,7.81-3.5,7.81-7.81s-3.5-7.81-7.81-7.81h-31.25c-12.94,0-23.44,10.49-23.44,23.44v31.25Z"/>
    <path class="cls-1" d="M253.56,207.12c0-4.31-3.5-7.81-7.81-7.81h-31.25c-4.31,0-7.81,3.5-7.81,7.81v31.25c0,4.31,3.5,7.81,7.81,7.81h31.25c4.31,0,7.81-3.5,7.81-7.81v-31.25ZM237.94,218.84c0-2.16-1.75-3.91-3.91-3.91h-7.81c-2.16,0-3.91,1.75-3.91,3.91v7.81c0,2.16,1.75,3.91,3.91,3.91h7.81c2.16,0,3.91-1.75,3.91-3.91v-7.81Z"/>
    <path class="cls-1" d="M308.25,261.81c4.31,0,7.81,3.5,7.81,7.81v31.25c0,4.31-3.5,7.81-7.81,7.81h-31.25c-4.31,0-7.81-3.5-7.81-7.81v-31.25c0-4.31,3.5-7.81,7.81-7.81h31.25ZM284.81,281.34c0-2.16,1.75-3.91,3.91-3.91h7.81c2.16,0,3.91,1.75,3.91,3.91v7.81c0,2.16-1.75,3.91-3.91,3.91h-7.81c-2.16,0-3.91-1.75-3.91-3.91v-7.81Z"/>
    <path class="cls-2" d="M277,199.31c-4.31,0-7.81,3.5-7.81,7.81s3.5,7.81,7.81,7.81h19.53c2.16,0,3.91,1.75,3.91,3.91v19.53c0,4.31,3.5,7.81,7.81,7.81s7.81-3.5,7.81-7.81v-31.25c0-4.31-3.5-7.81-7.81-7.81h-31.25Z"/>
    <path class="cls-2" d="M277,222.75c-4.31,0-7.81,3.5-7.81,7.81v7.81c0,4.31,3.5,7.81,7.81,7.81s7.81-3.5,7.81-7.81v-7.81c0-4.31-3.5-7.81-7.81-7.81Z"/>
    <path class="cls-2" d="M214.5,261.81c-4.31,0-7.81,3.5-7.81,7.81v15.62c0,4.31,3.5,7.81,7.81,7.81s7.81-3.5,7.81-7.81v-3.91c0-2.16,1.75-3.91,3.91-3.91h19.53c4.31,0,7.81-3.5,7.81-7.81s-3.5-7.81-7.81-7.81h-31.25Z"/>
    <path class="cls-2" d="M245.75,293.06c-4.31,0-7.81,3.5-7.81,7.81s3.5,7.81,7.81,7.81,7.81-3.5,7.81-7.81-3.5-7.81-7.81-7.81Z"/>
  </g>
</svg>
