<?xml version="1.0" encoding="UTF-8"?>
<svg id="Layer_1" data-name="Layer 1" xmlns="http://www.w3.org/2000/svg" viewBox="0 0 171.89 171.87">
  <defs>
    <style>
      .cls-1 {
        fill-rule: evenodd;
      }

      .cls-1, .cls-2 {
        fill: #231f20;
        stroke-width: 0px;
      }
    </style>
  </defs>
  <path class="cls-2" d="M171.88,23.44c0-12.94-10.49-23.44-23.44-23.44h-31.25c-4.31,0-7.81,3.5-7.81,7.81s3.5,7.81,7.81,7.81h31.25c4.31,0,7.81,3.5,7.81,7.81v31.25c0,4.31,3.5,7.81,7.81,7.81s7.81-3.5,7.81-7.81v-31.24h.01Z"/>
  <path class="cls-2" d="M171.88,117.18c0-4.31-3.5-7.81-7.81-7.81s-7.81,3.5-7.81,7.81v31.25c0,4.31-3.5,7.81-7.81,7.81h-31.25c-4.31,0-7.81,3.5-7.81,7.81s3.5,7.81,7.81,7.81h31.25c12.94,0,23.44-10.49,23.44-23.44v-31.24h-.01Z"/>
  <path class="cls-2" d="M23.45,156.24c-4.31,0-7.81-3.5-7.81-7.81v-31.25c0-4.31-3.5-7.81-7.81-7.81S.02,112.87.02,117.18v31.25c0,12.94,10.49,23.44,23.44,23.44h31.25c4.31,0,7.81-3.5,7.81-7.81s-3.5-7.81-7.81-7.81h-31.26Z"/>
  <path class="cls-2" d="M.01,54.68c0,4.31,3.5,7.81,7.81,7.81s7.81-3.5,7.81-7.81v-31.25c0-4.31,3.5-7.81,7.81-7.81h31.25c4.31,0,7.81-3.5,7.81-7.81S59,0,54.69,0h-31.25C10.5,0,0,10.49,0,23.44v31.24h.01Z"/>
  <path class="cls-1" d="M78.13,39.06c0-4.31-3.5-7.81-7.81-7.81h-31.25c-4.31,0-7.81,3.5-7.81,7.81v31.25c0,4.31,3.5,7.81,7.81,7.81h31.25c4.31,0,7.81-3.5,7.81-7.81v-31.25ZM62.51,50.78c0-2.16-1.75-3.91-3.91-3.91h-7.81c-2.16,0-3.91,1.75-3.91,3.91v7.81c0,2.16,1.75,3.91,3.91,3.91h7.81c2.16,0,3.91-1.75,3.91-3.91v-7.81Z"/>
  <path class="cls-1" d="M132.82,93.74c4.31,0,7.81,3.5,7.81,7.81v31.25c0,4.31-3.5,7.81-7.81,7.81h-31.25c-4.31,0-7.81-3.5-7.81-7.81v-31.25c0-4.31,3.5-7.81,7.81-7.81h31.25ZM109.38,113.27c0-2.16,1.75-3.91,3.91-3.91h7.81c2.16,0,3.91,1.75,3.91,3.91v7.81c0,2.16-1.75,3.91-3.91,3.91h-7.81c-2.16,0-3.91-1.75-3.91-3.91v-7.81Z"/>
  <path class="cls-2" d="M101.57,31.25c-4.31,0-7.81,3.5-7.81,7.81s3.5,7.81,7.81,7.81h19.53c2.16,0,3.91,1.75,3.91,3.91v19.53c0,4.31,3.5,7.81,7.81,7.81s7.81-3.5,7.81-7.81v-31.25c0-4.31-3.5-7.81-7.81-7.81h-31.25Z"/>
  <path class="cls-2" d="M101.57,54.68c-4.31,0-7.81,3.5-7.81,7.81v7.81c0,4.31,3.5,7.81,7.81,7.81s7.81-3.5,7.81-7.81v-7.81c0-4.31-3.5-7.81-7.81-7.81Z"/>
  <path class="cls-2" d="M39.07,93.74c-4.31,0-7.81,3.5-7.81,7.81v15.62c0,4.31,3.5,7.81,7.81,7.81s7.81-3.5,7.81-7.81v-3.91c0-2.16,1.75-3.91,3.91-3.91h19.53c4.31,0,7.81-3.5,7.81-7.81s-3.5-7.81-7.81-7.81h-31.25Z"/>
  <path class="cls-2" d="M70.32,124.99c-4.31,0-7.81,3.5-7.81,7.81s3.5,7.81,7.81,7.81,7.81-3.5,7.81-7.81-3.5-7.81-7.81-7.81Z"/>
</svg>