<?xml version="1.0" encoding="UTF-8"?>
<svg id="Icons" xmlns="http://www.w3.org/2000/svg" xmlns:xlink="http://www.w3.org/1999/xlink" viewBox="0 0 512 512">
  <defs>
    <style>
      .cls-1 {
        fill: #fff;
      }

      .cls-2 {
        fill: url(#New_Gradient_Swatch_1);
      }
    </style>
    <linearGradient id="New_Gradient_Swatch_1" data-name="New Gradient Swatch 1" x1="52.57" y1="255.06" x2="459.47" y2="255.06" gradientUnits="userSpaceOnUse">
      <stop offset="0" stop-color="#f15d22"/>
      <stop offset="1" stop-color="#ed2024"/>
    </linearGradient>
  </defs>
  <ellipse class="cls-2" cx="256.02" cy="255.06" rx="203.45" ry="203.67"/>
  <g>
    <g>
      <path class="cls-1" d="M308.84,349.16c-3.14,0-6.06-1.99-7.11-5.13l-39.22-117.48c-.05-.16-.1-.32-.14-.49-1.32-5.07-5.29-5.47-6.48-5.47s-5.16.39-6.48,5.47c-.04.16-.09.32-.14.47l-38.92,117.48c-1.3,3.93-5.55,6.06-9.48,4.76-3.93-1.3-6.06-5.55-4.76-9.48l38.85-117.26c2.67-9.84,11.05-16.43,20.93-16.43s18.25,6.59,20.93,16.42l39.14,117.26c1.31,3.93-.81,8.18-4.74,9.49-.79.26-1.59.39-2.38.39Z"/>
      <path class="cls-1" d="M254.83,219.74c-13.92,0-25.25-11.33-25.25-25.26s11.33-25.26,25.25-25.26,25.25,11.33,25.25,25.26-11.33,25.26-25.25,25.26ZM254.83,184.21c-5.65,0-10.25,4.6-10.25,10.26s4.6,10.26,10.25,10.26,10.25-4.6,10.25-10.26-4.6-10.26-10.25-10.26Z"/>
      <g>
        <path class="cls-1" d="M221.33,213.63c-1.16,0-2.33-.4-3.27-1.22-2.68-2.33-8.87-8.76-8.41-18.27.39-8.18,5.44-13.72,8.42-16.29,2.09-1.81,5.25-1.58,7.05.51s1.58,5.25-.51,7.05c-1.42,1.23-4.75,4.58-4.97,9.21-.25,5.13,3.4,8.87,4.98,10.24,2.09,1.81,2.31,4.97.5,7.05-.99,1.14-2.38,1.72-3.78,1.72Z"/>
        <path class="cls-1" d="M209.45,226.08c-1.16,0-2.33-.4-3.27-1.22-4.7-4.08-15.55-15.34-14.76-31.8.68-14.17,9.54-23.86,14.77-28.38,2.09-1.81,5.25-1.58,7.05.51,1.81,2.09,1.58,5.25-.51,7.05-3.23,2.79-10.8,10.46-11.32,21.3-.58,12.08,7.73,20.64,11.32,23.76,2.09,1.81,2.31,4.97.5,7.05-.99,1.14-2.38,1.72-3.78,1.72Z"/>
      </g>
      <g>
        <path class="cls-1" d="M288.17,212.9c-1.4,0-2.8-.59-3.78-1.73-1.81-2.09-1.58-5.25.51-7.05,1.42-1.23,4.75-4.58,4.97-9.21.25-5.13-3.4-8.87-4.98-10.24-2.09-1.81-2.31-4.97-.5-7.05,1.81-2.09,4.97-2.31,7.05-.5,2.68,2.33,8.87,8.76,8.41,18.27-.39,8.18-5.44,13.72-8.42,16.29-.95.82-2.11,1.22-3.27,1.22Z"/>
        <path class="cls-1" d="M300.05,226.08c-1.4,0-2.79-.59-3.78-1.73-1.81-2.09-1.58-5.25.51-7.05,3.23-2.79,10.8-10.46,11.32-21.3.58-12.08-7.73-20.64-11.32-23.76-2.09-1.81-2.31-4.97-.5-7.05,1.81-2.09,4.97-2.31,7.05-.5,4.7,4.08,15.55,15.34,14.76,31.8-.68,14.17-9.54,23.86-14.77,28.38-.95.82-2.11,1.22-3.27,1.22Z"/>
      </g>
    </g>
    <path class="cls-1" d="M213.59,325.91c-2.17,0-4.16-1.42-4.8-3.6-.77-2.65.75-5.43,3.4-6.2l80-23.3c2.65-.77,5.43.75,6.2,3.4s-.75,5.43-3.4,6.2l-80,23.3c-.47.14-.94.2-1.4.2Z"/>
    <path class="cls-1" d="M285.8,276.77c-.6,0-1.21-.11-1.81-.34l-50.5-19.59c-2.57-1-3.85-3.9-2.85-6.47s3.9-3.85,6.47-2.85l50.5,19.59c2.57,1,3.85,3.9,2.85,6.47-.77,1.98-2.66,3.19-4.66,3.19Z"/>
  </g>
</svg>
