<?xml version="1.0" encoding="UTF-8"?>
<svg id="Icons" xmlns="http://www.w3.org/2000/svg" xmlns:xlink="http://www.w3.org/1999/xlink" viewBox="0 0 511.68 511.68">
  <defs>
    <style>
      .cls-1 {
        fill: #fff;
      }

      .cls-2 {
        fill: url(#New_Gradient_Swatch_1);
      }
    </style>
    <linearGradient id="New_Gradient_Swatch_1" data-name="New Gradient Swatch 1" x1="60.36" y1="254" x2="462.38" y2="254" gradientUnits="userSpaceOnUse">
      <stop offset="0" stop-color="#f15d22"/>
      <stop offset="1" stop-color="#ed2024"/>
    </linearGradient>
  </defs>
  <path class="cls-2" d="M261.37,52.99c-111.01,0-201.01,90-201.01,201.01s90,201.01,201.01,201.01,201.01-90,201.01-201.01S372.39,52.99,261.37,52.99Z"/>
  <g>
    <path class="cls-1" d="M279.08,267.46c0,5.96,0,11.29,0,16.63,0,10.02.03,20.05-.01,30.07-.03,7.57-2.42,10.56-8.29,10.56-7.91,0-15.83.01-23.74,0-4.71,0-6.95-2.48-7.58-8.35-.12-1.1-.1-2.22-.1-3.33,0-13.7,0-27.4,0-41.1,0-1.32,0-2.63,0-4.48-1.78,0-3.33.05-4.87,0-5.46-.19-8-3.5-8-10.42,0-14.48.4-28.98-.14-43.43-.38-10.45,6.56-17.35,12.09-18.73,9.96-2.48,20.07-2.43,30.17-1.64,3.49.27,6.98.78,10.44,1.45,4.35.84,8.06,3.53,10.44,8.17,1.31,2.55,2.3,5.86,2.35,8.86.23,15.14.11,30.29.1,45.44,0,6.73-2.52,10.05-7.83,10.3-1.56.07-3.12.01-5.04.01Z"/>
    <circle class="cls-1" cx="259.64" cy="176.9" r="20.12"/>
    <path class="cls-1" d="M350.04,348.85h-176.68c-3.11,0-5.9-1.92-7.01-4.83-1.11-2.91-.31-6.2,2.01-8.27l54.42-48.57c1.38-1.23,3.15-1.9,4.99-1.9h58.98c1.65,0,3.26.54,4.57,1.55l63.28,48.57c2.55,1.96,3.57,5.32,2.54,8.36s-3.89,5.09-7.1,5.09ZM193.03,333.85h134.92l-43.73-33.57h-53.58l-37.61,33.57Z"/>
  </g>
</svg>
