<?xml version="1.0" encoding="UTF-8"?>
<svg id="Layer_1" data-name="Layer 1" xmlns="http://www.w3.org/2000/svg" viewBox="0 0 191.68 192.07">
  <defs>
    <style>
      .cls-1 {
        fill: none;
        stroke: #231f20;
        stroke-linecap: round;
        stroke-linejoin: round;
        stroke-width: 15px;
      }

      .cls-2 {
        fill: #231f20;
        stroke-width: 0px;
      }
    </style>
  </defs>
  <path class="cls-2" d="M113.21,110.68v16.63c0,10.02.03,20.05-.01,30.07-.03,7.57-2.42,10.56-8.29,10.56-7.91,0-15.83.01-23.74,0-4.71-.01-6.95-2.48-7.58-8.35-.12-1.1-.1-2.22-.1-3.33,0-13.7,0-27.4,0-41.1v-4.48c-1.78,0-3.33.05-4.87-.01-5.46-.19-8-3.5-8-10.42,0-14.48.4-28.98-.14-43.43-.38-10.45,6.56-17.35,12.09-18.73,9.96-2.48,20.07-2.43,30.17-1.64,3.49.27,6.98.78,10.44,1.45,4.35.84,8.06,3.53,10.44,8.17,1.31,2.55,2.3,5.86,2.35,8.86.23,15.14.11,30.29.1,45.44,0,6.73-2.52,10.05-7.83,10.3-1.54.07-3.1.01-5.03.01Z"/>
  <circle class="cls-2" cx="93.77" cy="20.12" r="20.12"/>
  <polygon class="cls-1" points="184.18 184.57 7.5 184.57 61.92 136 120.9 136 184.18 184.57"/>
</svg>