<?xml version="1.0" encoding="UTF-8"?>
<svg id="Icons" xmlns="http://www.w3.org/2000/svg" xmlns:xlink="http://www.w3.org/1999/xlink" viewBox="0 0 512 512">
  <defs>
    <style>
      .cls-1 {
        fill: #fff;
      }

      .cls-2 {
        fill: url(#New_Gradient_Swatch_1);
      }
    </style>
    <linearGradient id="New_Gradient_Swatch_1" data-name="New Gradient Swatch 1" x1="52.57" y1="267.98" x2="459.43" y2="267.98" gradientUnits="userSpaceOnUse">
      <stop offset="0" stop-color="#f15d22"/>
      <stop offset="1" stop-color="#ed2024"/>
    </linearGradient>
  </defs>
  <circle class="cls-2" cx="256" cy="267.98" r="203.43"/>
  <g>
    <path class="cls-1" d="M176.93,266.83c-9.25,0-16.78-7.53-16.78-16.78s7.53-16.78,16.78-16.78,16.78,7.53,16.78,16.78-7.53,16.78-16.78,16.78ZM176.93,242.27c-4.29,0-7.78,3.49-7.78,7.78s3.49,7.78,7.78,7.78,7.78-3.49,7.78-7.78-3.49-7.78-7.78-7.78Z"/>
    <path class="cls-1" d="M230.96,225.09c-9.25,0-16.78-7.53-16.78-16.78s7.53-16.78,16.78-16.78,16.78,7.53,16.78,16.78-7.53,16.78-16.78,16.78ZM230.96,200.53c-4.29,0-7.78,3.49-7.78,7.78s3.49,7.78,7.78,7.78,7.78-3.49,7.78-7.78-3.49-7.78-7.78-7.78Z"/>
    <path class="cls-1" d="M284.98,249.32c-9.25,0-16.78-7.53-16.78-16.78s7.53-16.78,16.78-16.78,16.78,7.53,16.78,16.78-7.53,16.78-16.78,16.78ZM284.98,224.76c-4.29,0-7.78,3.49-7.78,7.78s3.49,7.78,7.78,7.78,7.78-3.49,7.78-7.78-3.49-7.78-7.78-7.78Z"/>
    <path class="cls-1" d="M339.01,203.83c-9.25,0-16.78-7.53-16.78-16.78s7.53-16.78,16.78-16.78,16.78,7.53,16.78,16.78-7.53,16.78-16.78,16.78ZM339.01,179.27c-4.29,0-7.78,3.49-7.78,7.78s3.49,7.78,7.78,7.78,7.78-3.49,7.78-7.78-3.49-7.78-7.78-7.78Z"/>
    <path class="cls-1" d="M185.25,244.39c-1.38,0-2.74-.63-3.62-1.83-1.48-2-1.05-4.81.94-6.29l34.06-25.18c2-1.48,4.81-1.05,6.29.94,1.48,2,1.05,4.81-.94,6.29l-34.06,25.18c-.8.59-1.74.88-2.67.88Z"/>
    <path class="cls-1" d="M272.63,230.32c-.78,0-1.58-.21-2.3-.63l-29.39-17.52c-2.13-1.27-2.83-4.03-1.56-6.17,1.27-2.13,4.03-2.83,6.17-1.56l29.39,17.52c2.13,1.27,2.83,4.03,1.56,6.17-.84,1.41-2.34,2.2-3.87,2.2Z"/>
    <path class="cls-1" d="M294.11,228.84c-1.28,0-2.54-.54-3.43-1.59-1.61-1.9-1.37-4.73.52-6.34l34.06-28.88c1.9-1.61,4.73-1.37,6.34.52,1.61,1.9,1.37,4.73-.52,6.34l-34.06,28.88c-.85.72-1.88,1.07-2.91,1.07Z"/>
    <path class="cls-1" d="M350.93,353.53h-4.42v-122.05c0-4.14-3.36-7.5-7.5-7.5s-7.5,3.36-7.5,7.5v122.05h-39.02v-83.88c0-4.14-3.36-7.5-7.5-7.5s-7.5,3.36-7.5,7.5v83.88h-39.02v-95.59c0-4.14-3.36-7.5-7.5-7.5s-7.5,3.36-7.5,7.5v95.59h-39.02v-58.99c0-4.14-3.36-7.5-7.5-7.5s-7.5,3.36-7.5,7.5v58.99h-8.37c-3.36,0-6.08,2.72-6.08,6.08s2.72,6.08,6.08,6.08h189.87c3.36,0,6.08-2.72,6.08-6.08s-2.72-6.08-6.08-6.08Z"/>
  </g>
</svg>
