<?xml version="1.0" encoding="UTF-8"?>
<svg id="Layer_1" data-name="Layer 1" xmlns="http://www.w3.org/2000/svg" viewBox="0 0 194.97 176.69">
  <defs>
    <style>
      .cls-1 {
        fill: #231f20;
        stroke-width: 0px;
      }
    </style>
  </defs>
  <path class="cls-1" d="M189.34,50.78c-6.02-9.67-11.76-19.55-18.44-28.75-2.27-3.12-7.01-6.25-10.66-6.29-7.15-.07-12.48-.18-12.48-.18V0h-36.55v15.44c-8.79-.02-17.57-.02-26.36,0V0h-36.55v15.56h.1c-4.56.03-9.13.05-13.69.08-3.09.02-7.38,1.91-9.05,4.35-7.93,11.61-15.88,23.32-22.43,35.73-7.74,14.66-.91,31.85,13.28,38.01,0,6.25-.04,53.51,0,69.8.03,9.77,3.54,13.15,13.47,13.15,45,.01,90,.02,135.01,0,10.4,0,13.72-3.24,13.76-13.55.05-15.51-.31-60.24-.38-69.07,2.72-1.13,5.27-2.73,7.57-4.81,10.63-9.63,11.99-24.66,3.39-38.47ZM36.37,135.87v-41.03c5.15-1.6,9.85-4.62,14.19-8.53,18.59,13.11,29.29,13.12,47.07.01,17.44,13.13,26.66,13.12,47.02.16.87.64,1.78,1.28,2.66,1.97,3.5,2.72,7.22,4.72,11,5.98v41.43c-41.01,0-81.18,0-121.94,0Z"/>
</svg>