<?xml version="1.0" encoding="UTF-8"?>
<svg id="Icons" xmlns="http://www.w3.org/2000/svg" xmlns:xlink="http://www.w3.org/1999/xlink" viewBox="0 0 511.68 511.68">
  <defs>
    <style>
      .cls-1 {
        fill: #fff;
      }

      .cls-2 {
        fill: url(#New_Gradient_Swatch_1);
      }
    </style>
    <linearGradient id="New_Gradient_Swatch_1" data-name="New Gradient Swatch 1" x1="54.83" y1="254" x2="456.85" y2="254" gradientUnits="userSpaceOnUse">
      <stop offset="0" stop-color="#f15d22"/>
      <stop offset="1" stop-color="#ed2024"/>
    </linearGradient>
  </defs>
  <path class="cls-2" d="M255.84,52.99c-111.01,0-201.01,90-201.01,201.01s90,201.01,201.01,201.01,201.01-90,201.01-201.01S366.86,52.99,255.84,52.99Z"/>
  <path class="cls-1" d="M347.7,216.42c-6.02-9.67-11.76-19.55-18.44-28.75-2.27-3.12-7.01-6.25-10.66-6.29-7.15-.07-12.48-.18-12.48-.18v-15.56h-36.55v15.44c-8.79-.02-17.57-.02-26.36,0v-15.44h-36.55v15.56h.1c-4.56.03-9.13.05-13.69.08-3.09.02-7.38,1.91-9.05,4.35-7.93,11.61-15.88,23.32-22.43,35.73-7.74,14.66-.91,31.85,13.28,38.01,0,6.25-.04,53.51,0,69.8.03,9.77,3.54,13.15,13.47,13.15,45,.01,90,.02,135.01,0,10.4,0,13.72-3.24,13.76-13.55.05-15.51-.31-60.24-.38-69.07,2.72-1.13,5.27-2.73,7.57-4.81,10.64-9.65,12.01-24.68,3.41-38.5ZM194.73,301.51v-41.03c5.15-1.6,9.85-4.62,14.19-8.53,18.59,13.11,29.29,13.12,47.07.01,17.44,13.13,26.66,13.12,47.02.16.87.64,1.78,1.28,2.66,1.97,3.5,2.72,7.22,4.72,11,5.98v41.43h-121.93Z"/>
</svg>
