<?xml version="1.0" encoding="UTF-8"?>
<svg id="Icons" xmlns="http://www.w3.org/2000/svg" xmlns:xlink="http://www.w3.org/1999/xlink" viewBox="0 0 511.68 511.68">
  <defs>
    <style>
      .cls-1 {
        fill: #fff;
      }

      .cls-2 {
        fill: url(#New_Gradient_Swatch_1);
      }
    </style>
    <linearGradient id="New_Gradient_Swatch_1" data-name="New Gradient Swatch 1" x1="54.83" y1="253.51" x2="456.85" y2="253.51" gradientUnits="userSpaceOnUse">
      <stop offset="0" stop-color="#f15d22"/>
      <stop offset="1" stop-color="#ed2024"/>
    </linearGradient>
  </defs>
  <path class="cls-2" d="M255.84,52.5c-111.01,0-201.01,90-201.01,201.01s90,201.01,201.01,201.01,201.01-90,201.01-201.01S366.86,52.5,255.84,52.5Z"/>
  <g>
    <path class="cls-1" d="M306.31,338.82h-100.25c-3.97,0-7.2-3.22-7.2-7.2s3.22-7.2,7.2-7.2h100.25c7.06,0,12.81-5.75,12.81-12.81v-116.23c0-7.06-5.75-12.81-12.81-12.81h-80.25c-7.06,0-12.81,5.75-12.81,12.81v73.47c0,3.97-3.22,7.2-7.2,7.2s-7.2-3.22-7.2-7.2v-73.47c0-15,12.2-27.2,27.2-27.2h80.25c15,0,27.2,12.2,27.2,27.2v116.23c0,15-12.2,27.2-27.2,27.2Z"/>
    <path class="cls-1" d="M293.51,216.7h-52.09c-2.21,0-4-1.79-4-4s1.79-4,4-4h52.09c2.21,0,4,1.79,4,4s-1.79,4-4,4Z"/>
    <path class="cls-1" d="M293.51,243.75h-52.09c-2.21,0-4-1.79-4-4s1.79-4,4-4h52.09c2.21,0,4,1.79,4,4s-1.79,4-4,4Z"/>
    <path class="cls-1" d="M293.51,270.81h-52.09c-2.21,0-4-1.79-4-4s1.79-4,4-4h52.09c2.21,0,4,1.79,4,4s-1.79,4-4,4Z"/>
    <path class="cls-1" d="M293.51,297.87h-52.09c-2.21,0-4-1.79-4-4s1.79-4,4-4h52.09c2.21,0,4,1.79,4,4s-1.79,4-4,4Z"/>
    <path class="cls-1" d="M202.34,338.82c-21.27,0-38.58-17.31-38.58-38.58s17.31-38.58,38.58-38.58,38.58,17.31,38.58,38.58-17.31,38.58-38.58,38.58ZM202.34,276.06c-13.34,0-24.19,10.85-24.19,24.19s10.85,24.19,24.19,24.19,24.19-10.85,24.19-24.19-10.85-24.19-24.19-24.19Z"/>
    <path class="cls-1" d="M217.17,305.71h-16.36c-2.21,0-4-1.79-4-4v-16.24c0-2.21,1.79-4,4-4s4,1.79,4,4v12.24h12.36c2.21,0,4,1.79,4,4s-1.79,4-4,4Z"/>
  </g>
</svg>
