<?xml version="1.0" encoding="UTF-8"?>
<svg id="Icons" xmlns="http://www.w3.org/2000/svg" xmlns:xlink="http://www.w3.org/1999/xlink" viewBox="0 0 511.68 511.68">
  <defs>
    <style>
      .cls-1 {
        fill: #fff;
      }

      .cls-2 {
        fill: url(#New_Gradient_Swatch_1);
      }
    </style>
    <linearGradient id="New_Gradient_Swatch_1" data-name="New Gradient Swatch 1" x1="60.36" y1="254" x2="462.38" y2="254" gradientUnits="userSpaceOnUse">
      <stop offset="0" stop-color="#f15d22"/>
      <stop offset="1" stop-color="#ed2024"/>
    </linearGradient>
  </defs>
  <path class="cls-2" d="M261.37,52.99c-111.01,0-201.01,90-201.01,201.01s90,201.01,201.01,201.01,201.01-90,201.01-201.01S372.39,52.99,261.37,52.99Z"/>
  <g>
    <path class="cls-1" d="M316.33,347.37h-109.92c-20.76,0-37.65-16.89-37.65-37.65v-109.92c0-20.76,16.89-37.65,37.65-37.65h109.92c20.76,0,37.65,16.89,37.65,37.65v109.92c0,20.76-16.89,37.65-37.65,37.65ZM206.42,177.16c-12.49,0-22.65,10.16-22.65,22.65v109.92c0,12.49,10.16,22.65,22.65,22.65h109.92c12.49,0,22.65-10.16,22.65-22.65v-109.92c0-12.49-10.16-22.65-22.65-22.65h-109.92Z"/>
    <g>
      <circle class="cls-1" cx="217.7" cy="212.7" r="13.75"/>
      <path class="cls-1" d="M309.15,208.76h-62.98c-2.8,0-5.06-2.27-5.06-5.06s2.27-5.06,5.06-5.06h62.98c2.8,0,5.06,2.27,5.06,5.06s-2.27,5.06-5.06,5.06Z"/>
      <path class="cls-1" d="M309.15,223.69h-62.98c-2.8,0-5.06-2.27-5.06-5.06s2.27-5.06,5.06-5.06h62.98c2.8,0,5.06,2.27,5.06,5.06s-2.27,5.06-5.06,5.06Z"/>
      <circle class="cls-1" cx="217.7" cy="257.51" r="13.75"/>
      <path class="cls-1" d="M309.15,253.57h-62.98c-2.8,0-5.06-2.27-5.06-5.06s2.27-5.06,5.06-5.06h62.98c2.8,0,5.06,2.27,5.06,5.06s-2.27,5.06-5.06,5.06Z"/>
      <path class="cls-1" d="M309.15,268.5h-62.98c-2.8,0-5.06-2.27-5.06-5.06s2.27-5.06,5.06-5.06h62.98c2.8,0,5.06,2.27,5.06,5.06s-2.27,5.06-5.06,5.06Z"/>
      <circle class="cls-1" cx="217.7" cy="302.32" r="13.75"/>
      <path class="cls-1" d="M309.15,298.37h-62.98c-2.8,0-5.06-2.27-5.06-5.06s2.27-5.06,5.06-5.06h62.98c2.8,0,5.06,2.27,5.06,5.06s-2.27,5.06-5.06,5.06Z"/>
      <path class="cls-1" d="M309.15,313.31h-62.98c-2.8,0-5.06-2.27-5.06-5.06s2.27-5.06,5.06-5.06h62.98c2.8,0,5.06,2.27,5.06,5.06s-2.27,5.06-5.06,5.06Z"/>
    </g>
  </g>
</svg>
