<?xml version="1.0" encoding="UTF-8"?>
<svg id="Layer_1" data-name="Layer 1" xmlns="http://www.w3.org/2000/svg" viewBox="0 0 210.11 110.24">
  <defs>
    <style>
      .cls-1 {
        fill: #231f20;
        stroke-width: 0px;
      }
    </style>
  </defs>
  <path class="cls-1" d="M210.11,76.32h-29.61V26.95h29.61v-15.41h-29.9V.04h-14.96v11.49h-30.04V0h-15.14v11.53h-30.03V0h-15.02v11.53h-30.01V.07h-15.41v11.85H0v14.89h29.57v49.65H.08v15.07h29.89v18.66h15.15v-18.64h30v18.65h15.01v-18.65h30.02v18.67h15.12v-18.59h30.29v18.61h14.82v-18.61h29.73v-15.31ZM74.87,76.16h-29.59V26.98h29.59v49.18ZM119.87,76.2h-29.56V26.96h29.56v49.24ZM165.15,76.18h-29.67V26.98h29.67v49.2Z"/>
</svg>