<?xml version="1.0" encoding="UTF-8"?>
<svg id="Icons" xmlns="http://www.w3.org/2000/svg" xmlns:xlink="http://www.w3.org/1999/xlink" viewBox="0 0 511.68 511.68">
  <defs>
    <style>
      .cls-1 {
        fill: #fff;
      }

      .cls-2 {
        fill: url(#New_Gradient_Swatch_1);
      }
    </style>
    <linearGradient id="New_Gradient_Swatch_1" data-name="New Gradient Swatch 1" x1="60.36" y1="254" x2="462.38" y2="254" gradientUnits="userSpaceOnUse">
      <stop offset="0" stop-color="#f15d22"/>
      <stop offset="1" stop-color="#ed2024"/>
    </linearGradient>
  </defs>
  <path class="cls-2" d="M261.37,52.99c-111.01,0-201.01,90-201.01,201.01s90,201.01,201.01,201.01,201.01-90,201.01-201.01S372.39,52.99,261.37,52.99Z"/>
  <path class="cls-1" d="M366.43,274.73h-29.61v-49.37h29.61v-15.42h-29.9v-11.5h-14.96v11.49h-30.04v-11.52h-15.14v11.53h-30.03v-11.54h-15.02v11.53h-30.01v-11.46h-15.41v11.85h-29.6v14.89h29.57v49.65h-29.49v15.07h29.89v18.66h15.15v-18.64h30v18.65h15.01v-18.65h30.02v18.67h15.12v-18.59h30.29v18.61h14.82v-18.61h29.73v-15.27ZM231.19,274.57h-29.59v-49.18h29.59v49.18ZM276.19,274.6h-29.56v-49.24h29.56v49.24ZM321.47,274.58h-29.67v-49.2h29.67v49.2Z"/>
</svg>
