<?xml version="1.0" encoding="UTF-8"?>
<svg id="Layer_1" data-name="Layer 1" xmlns="http://www.w3.org/2000/svg" viewBox="0 0 215.35 171.91">
  <defs>
    <style>
      .cls-1 {
        fill: #231f20;
        stroke-width: 0px;
      }
    </style>
  </defs>
  <path class="cls-1" d="M89.41,3.05C45.7-2.22,32.88,1.37,0,0v11.67c16.83.71,31.7,3.3,37.77,8.27,3.64,2.98,5.79,9.28,7.01,13.6,1.88,6.7,1.64,8.09,2.57,14.97.9,6.65,1.56,13.33,2.07,20.02.26,3.48,1.05,7.6.38,11.18-.27,1.42-.77,2.76-1.62,3.94-4.12,5.73-9.22,5.38-18.2,5.43-9.73.05-20.12-.15-29.97-1.86v52.63c60.95.2,107.67.01,168.02.01,34.09-4.41,47.37-18.04,47.32-31.49-.19-48.17-82.23-100.04-125.94-105.32ZM185.61,80.04c-15.64,9.92-89.37,12.93-104.96.15-3.64-2.98-5.79-9.28-7.01-13.6-1.88-6.7-1.64-8.09-2.57-14.97-.9-6.65-1.56-13.33-2.07-20.02-.26-3.48-1.05-7.6-.38-11.18.27-1.42.77-2.76,1.62-3.94,4.12-5.73,11.79-5.43,18.18-4.79,16.2,1.61,31.22,7.32,45.91,15.72,16.26,9.3,29.6,18.05,42.41,29.92,3.71,3.44,17.29,17.37,8.87,22.71Z"/>
  <path class="cls-1" d="M0,146.72v14.16h5.61c0,6.09,4.94,11.03,11.03,11.03s11.03-4.94,11.03-11.03h6.82c0,6.09,4.94,11.03,11.03,11.03s11.03-4.94,11.03-11.03h27.8c0,6.09,4.94,11.03,11.03,11.03s11.03-4.94,11.03-11.03h6.82c0,6.09,4.94,11.03,11.03,11.03s11.03-4.94,11.03-11.03h22.53l10.88-14.16H0Z"/>
</svg>