<?xml version="1.0" encoding="UTF-8"?>
<svg id="Icons" xmlns="http://www.w3.org/2000/svg" xmlns:xlink="http://www.w3.org/1999/xlink" viewBox="0 0 512 512">
  <defs>
    <style>
      .cls-1 {
        fill: #fff;
      }

      .cls-2 {
        fill: url(#New_Gradient_Swatch_1);
      }
    </style>
    <linearGradient id="New_Gradient_Swatch_1" data-name="New Gradient Swatch 1" x1="52.57" y1="262.82" x2="459.43" y2="262.82" gradientUnits="userSpaceOnUse">
      <stop offset="0" stop-color="#f15d22"/>
      <stop offset="1" stop-color="#ed2024"/>
    </linearGradient>
  </defs>
  <circle class="cls-2" cx="256" cy="262.82" r="203.43"/>
  <g>
    <path class="cls-1" d="M227.75,268.53c-3.95,0-7.16-3.2-7.16-7.16v-43.5c0-3.95,3.2-7.16,7.16-7.16s7.16,3.2,7.16,7.16v43.5c0,3.95-3.2,7.16-7.16,7.16Z"/>
    <path class="cls-1" d="M268.67,309.9c-1.83,0-3.66-.7-5.06-2.1l-40.48-40.48c-2.79-2.79-2.79-7.33,0-10.12,2.79-2.79,7.33-2.79,10.12,0l40.48,40.48c2.79,2.79,2.79,7.33,0,10.12-1.4,1.4-3.23,2.1-5.06,2.1Z"/>
    <path class="cls-1" d="M251.95,355.96l-.07-.03c-2.69-1.18-6.36-2.8-8.95-5.49l-2.48-2.57c-2.06.15-4.13.24-6.22.24-47.03,0-85.29-38.26-85.29-85.29s38.26-85.29,85.29-85.29c27.15,0,51.37,12.75,67.01,32.58l7-10.03c.49-.71,1.07-1.34,1.68-1.92-18.28-21.36-45.43-34.93-75.69-34.93-54.92,0-99.6,44.68-99.6,99.6s44.68,99.6,99.6,99.6c8.92,0,17.56-1.19,25.8-3.4-2.73-.87-5.42-1.89-8.07-3.06Z"/>
    <path class="cls-1" d="M290.25,245.58c-.87-.25-2.61-3.1-1.41-4.1l44.53-60.67c1.28-1.96,3.18-2.48,5.39-1.63l52.32,62.07c.83,1.28-.1,4.33-1.62,4.33h-20.33c.77,35.56-10.73,75.27-41.03,96.39-21.43,14.94-49.16,17.81-73.18,7.24-2.17-.95-5.09-2.23-6.68-3.88,19.38-4.46,37.69-15.59,48.69-32.36,12.96-19.78,15.04-44.27,15.28-67.39h-21.96Z"/>
  </g>
</svg>
