<?xml version="1.0" encoding="UTF-8"?>
<svg id="Layer_1" data-name="Layer 1" xmlns="http://www.w3.org/2000/svg" viewBox="0 0 185.55 186.13">
  <defs>
    <style>
      .cls-1 {
        fill: #231f20;
        stroke-width: 0px;
      }
    </style>
  </defs>
  <path class="cls-1" d="M14.4,14.26c0,7.43.12,14.19-.04,20.95-.13,5.6-5.08,9.47-9.52,7.07-2.12-1.15-4.36-4.23-4.48-6.55C-.15,26.25-.02,16.72.19,7.22.29,2.66,3.14.16,7.77.1,16.84-.01,25.92,0,35,.09c4.77.05,7.94,3.17,7.8,7.38-.13,4.02-3.13,6.68-7.94,6.75-6.6.11-13.21.04-20.46.04Z"/>
  <path class="cls-1" d="M14.39,171.92h17.49c1.3,0,2.6-.08,3.89.04,4.32.39,7.16,3.36,7.03,7.25-.12,3.68-2.98,6.72-7.05,6.79-9.5.17-19.01.17-28.51,0-4.28-.08-6.93-2.7-7.03-7.21-.23-9.5-.19-19.01,0-28.51.08-4.2,3.47-7.27,7.18-7.16,3.69.11,6.87,3.25,6.98,7.45.16,6.9.03,13.8.03,21.35Z"/>
  <path class="cls-1" d="M171.16,14.24c-5.58,0-10.73,0-15.88,0-2.02,0-4.05.11-6.04-.1-4.05-.42-6.65-3.41-6.51-7.24.12-3.47,2.93-6.67,6.65-6.74,9.79-.18,19.59-.25,29.38.02,4.2.12,6.52,3.11,6.59,7.2.16,9.5.21,19.01-.04,28.51-.11,4.35-3.43,7.18-7.23,7.03-3.8-.15-6.8-3.22-6.88-7.47-.14-6.87-.04-13.76-.04-21.21Z"/>
  <path class="cls-1" d="M171.16,171.9c0-7.25-.04-13.72.01-20.19.04-5.04,3.02-8.54,7.18-8.57,4-.03,6.99,3.21,7.07,8.19.15,8.78.18,17.57.04,26.36-.09,5.8-2.84,8.35-8.64,8.38-8.64.05-17.28.05-25.93-.02-4.92-.04-8.11-2.89-8.14-7.04-.02-4.18,3.04-7,8.08-7.09,6.59-.12,13.19-.02,20.33-.02Z"/>
  <g>
    <path class="cls-1" d="M76.47,135.45c-11.2,0-22.41.01-33.61-.01-5.51-.01-7.64-2.12-7.65-7.56,0-12.46-.02-24.92,0-37.38,0-5.15,2.1-7.25,7.25-7.25,22.51-.02,45.02-.02,67.53,0,5.29,0,7.49,2.19,7.5,7.4.02,12.46.02,24.92,0,37.38-.01,5.33-2.08,7.41-7.42,7.42-11.2.02-22.4,0-33.6,0Z"/>
    <path class="cls-1" d="M102.45,35.24c12.33.06,22.41,10.15,22.42,22.44.01,12.63-10.25,22.76-22.88,22.6-12.4-.16-22.27-10.19-22.22-22.59.05-12.53,10.13-22.51,22.68-22.45Z"/>
    <path class="cls-1" d="M151.69,109.17c0,7.22.03,14.44-.02,21.66-.02,3.11-.9,3.55-3.58,1.88-8.34-5.21-16.68-10.41-24.93-15.76-.93-.6-1.28-2.11-1.86-3.21-.09-.16-.02-.41-.01-.62.06-3.76-1.1-8.2.51-11.09,1.6-2.88,5.96-4.25,9.16-6.21,5.62-3.44,11.27-6.83,16.93-10.21,3.08-1.84,3.73-1.43,3.8,2.21v.31c0,7.02,0,14.03,0,21.04Z"/>
    <path class="cls-1" d="M71,62.78c.21,9.54-7.23,17.31-16.78,17.5-9.41.19-17.12-7.15-17.39-16.54-.28-9.57,7.13-17.46,16.59-17.67,9.53-.23,17.36,7.22,17.58,16.71Z"/>
  </g>
</svg>